%TF.GenerationSoftware,KiCad,Pcbnew,(5.1.6-0)*%
%TF.CreationDate,2023-05-11T16:35:51-07:00*%
%TF.ProjectId,input_buffer_RCA,696e7075-745f-4627-9566-6665725f5243,rev?*%
%TF.SameCoordinates,Original*%
%TF.FileFunction,Legend,Bot*%
%TF.FilePolarity,Positive*%
%FSLAX46Y46*%
G04 Gerber Fmt 4.6, Leading zero omitted, Abs format (unit mm)*
G04 Created by KiCad (PCBNEW (5.1.6-0)) date 2023-05-11 16:35:51*
%MOMM*%
%LPD*%
G01*
G04 APERTURE LIST*
%ADD10C,0.150000*%
G04 APERTURE END LIST*
D10*
X144190476Y-136202380D02*
X144523809Y-135726190D01*
X144761904Y-136202380D02*
X144761904Y-135202380D01*
X144380952Y-135202380D01*
X144285714Y-135250000D01*
X144238095Y-135297619D01*
X144190476Y-135392857D01*
X144190476Y-135535714D01*
X144238095Y-135630952D01*
X144285714Y-135678571D01*
X144380952Y-135726190D01*
X144761904Y-135726190D01*
X143380952Y-136154761D02*
X143476190Y-136202380D01*
X143666666Y-136202380D01*
X143761904Y-136154761D01*
X143809523Y-136059523D01*
X143809523Y-135678571D01*
X143761904Y-135583333D01*
X143666666Y-135535714D01*
X143476190Y-135535714D01*
X143380952Y-135583333D01*
X143333333Y-135678571D01*
X143333333Y-135773809D01*
X143809523Y-135869047D01*
X143000000Y-135535714D02*
X142761904Y-136202380D01*
X142523809Y-135535714D01*
X141619047Y-136202380D02*
X142190476Y-136202380D01*
X141904761Y-136202380D02*
X141904761Y-135202380D01*
X142000000Y-135345238D01*
X142095238Y-135440476D01*
X142190476Y-135488095D01*
X141190476Y-136107142D02*
X141142857Y-136154761D01*
X141190476Y-136202380D01*
X141238095Y-136154761D01*
X141190476Y-136107142D01*
X141190476Y-136202380D01*
X140523809Y-135202380D02*
X140428571Y-135202380D01*
X140333333Y-135250000D01*
X140285714Y-135297619D01*
X140238095Y-135392857D01*
X140190476Y-135583333D01*
X140190476Y-135821428D01*
X140238095Y-136011904D01*
X140285714Y-136107142D01*
X140333333Y-136154761D01*
X140428571Y-136202380D01*
X140523809Y-136202380D01*
X140619047Y-136154761D01*
X140666666Y-136107142D01*
X140714285Y-136011904D01*
X140761904Y-135821428D01*
X140761904Y-135583333D01*
X140714285Y-135392857D01*
X140666666Y-135297619D01*
X140619047Y-135250000D01*
X140523809Y-135202380D01*
X146452380Y-133452380D02*
X146452380Y-132452380D01*
X146119047Y-133166666D01*
X145785714Y-132452380D01*
X145785714Y-133452380D01*
X144880952Y-133452380D02*
X144880952Y-132928571D01*
X144928571Y-132833333D01*
X145023809Y-132785714D01*
X145214285Y-132785714D01*
X145309523Y-132833333D01*
X144880952Y-133404761D02*
X144976190Y-133452380D01*
X145214285Y-133452380D01*
X145309523Y-133404761D01*
X145357142Y-133309523D01*
X145357142Y-133214285D01*
X145309523Y-133119047D01*
X145214285Y-133071428D01*
X144976190Y-133071428D01*
X144880952Y-133023809D01*
X144500000Y-132785714D02*
X144261904Y-133452380D01*
X144023809Y-132785714D02*
X144261904Y-133452380D01*
X144357142Y-133690476D01*
X144404761Y-133738095D01*
X144500000Y-133785714D01*
X142928571Y-132547619D02*
X142880952Y-132500000D01*
X142785714Y-132452380D01*
X142547619Y-132452380D01*
X142452380Y-132500000D01*
X142404761Y-132547619D01*
X142357142Y-132642857D01*
X142357142Y-132738095D01*
X142404761Y-132880952D01*
X142976190Y-133452380D01*
X142357142Y-133452380D01*
X141738095Y-132452380D02*
X141642857Y-132452380D01*
X141547619Y-132500000D01*
X141500000Y-132547619D01*
X141452380Y-132642857D01*
X141404761Y-132833333D01*
X141404761Y-133071428D01*
X141452380Y-133261904D01*
X141500000Y-133357142D01*
X141547619Y-133404761D01*
X141642857Y-133452380D01*
X141738095Y-133452380D01*
X141833333Y-133404761D01*
X141880952Y-133357142D01*
X141928571Y-133261904D01*
X141976190Y-133071428D01*
X141976190Y-132833333D01*
X141928571Y-132642857D01*
X141880952Y-132547619D01*
X141833333Y-132500000D01*
X141738095Y-132452380D01*
X141023809Y-132547619D02*
X140976190Y-132500000D01*
X140880952Y-132452380D01*
X140642857Y-132452380D01*
X140547619Y-132500000D01*
X140500000Y-132547619D01*
X140452380Y-132642857D01*
X140452380Y-132738095D01*
X140500000Y-132880952D01*
X141071428Y-133452380D01*
X140452380Y-133452380D01*
X140119047Y-132452380D02*
X139500000Y-132452380D01*
X139833333Y-132833333D01*
X139690476Y-132833333D01*
X139595238Y-132880952D01*
X139547619Y-132928571D01*
X139500000Y-133023809D01*
X139500000Y-133261904D01*
X139547619Y-133357142D01*
X139595238Y-133404761D01*
X139690476Y-133452380D01*
X139976190Y-133452380D01*
X140071428Y-133404761D01*
X140119047Y-133357142D01*
M02*
