%TF.GenerationSoftware,KiCad,Pcbnew,(5.1.6-0)*%
%TF.CreationDate,2023-06-01T15:27:15-07:00*%
%TF.ProjectId,input_buffer_RCA,696e7075-745f-4627-9566-6665725f5243,rev?*%
%TF.SameCoordinates,Original*%
%TF.FileFunction,Soldermask,Bot*%
%TF.FilePolarity,Negative*%
%FSLAX46Y46*%
G04 Gerber Fmt 4.6, Leading zero omitted, Abs format (unit mm)*
G04 Created by KiCad (PCBNEW (5.1.6-0)) date 2023-06-01 15:27:15*
%MOMM*%
%LPD*%
G01*
G04 APERTURE LIST*
%ADD10C,2.100000*%
%ADD11C,0.900000*%
%ADD12C,6.500000*%
%ADD13O,1.600000X4.100000*%
%ADD14O,1.800000X4.100000*%
%ADD15C,3.300000*%
%ADD16C,2.900000*%
G04 APERTURE END LIST*
D10*
%TO.C,J4*%
X123250000Y-106250000D03*
X126750000Y-106250000D03*
%TD*%
D11*
%TO.C,H4*%
X150697056Y-137052944D03*
X149000000Y-136350000D03*
X147302944Y-137052944D03*
X146600000Y-138750000D03*
X147302944Y-140447056D03*
X149000000Y-141150000D03*
X150697056Y-140447056D03*
X151400000Y-138750000D03*
D12*
X149000000Y-138750000D03*
%TD*%
D11*
%TO.C,H3*%
X150697056Y-104302944D03*
X149000000Y-103600000D03*
X147302944Y-104302944D03*
X146600000Y-106000000D03*
X147302944Y-107697056D03*
X149000000Y-108400000D03*
X150697056Y-107697056D03*
X151400000Y-106000000D03*
D12*
X149000000Y-106000000D03*
%TD*%
D11*
%TO.C,H2*%
X102697056Y-137052944D03*
X101000000Y-136350000D03*
X99302944Y-137052944D03*
X98600000Y-138750000D03*
X99302944Y-140447056D03*
X101000000Y-141150000D03*
X102697056Y-140447056D03*
X103400000Y-138750000D03*
D12*
X101000000Y-138750000D03*
%TD*%
D11*
%TO.C,H1*%
X102697056Y-104302944D03*
X101000000Y-103600000D03*
X99302944Y-104302944D03*
X98600000Y-106000000D03*
X99302944Y-107697056D03*
X101000000Y-108400000D03*
X102697056Y-107697056D03*
X103400000Y-106000000D03*
D12*
X101000000Y-106000000D03*
%TD*%
D13*
%TO.C,J1*%
X138250000Y-136500000D03*
D14*
X111850000Y-136500000D03*
D15*
X114250000Y-140000000D03*
D16*
X128250000Y-132750000D03*
D15*
X128250000Y-140000000D03*
D16*
X114250000Y-132750000D03*
%TD*%
D10*
%TO.C,J3*%
X134500000Y-106250000D03*
X138000000Y-106250000D03*
X141500000Y-106250000D03*
%TD*%
%TO.C,J2*%
X108500000Y-106250000D03*
X112000000Y-106250000D03*
X115500000Y-106250000D03*
%TD*%
M02*
