%TF.GenerationSoftware,KiCad,Pcbnew,(5.1.6-0)*%
%TF.CreationDate,2023-05-11T16:35:51-07:00*%
%TF.ProjectId,input_buffer_RCA,696e7075-745f-4627-9566-6665725f5243,rev?*%
%TF.SameCoordinates,Original*%
%TF.FileFunction,Copper,L2,Bot*%
%TF.FilePolarity,Positive*%
%FSLAX46Y46*%
G04 Gerber Fmt 4.6, Leading zero omitted, Abs format (unit mm)*
G04 Created by KiCad (PCBNEW (5.1.6-0)) date 2023-05-11 16:35:51*
%MOMM*%
%LPD*%
G01*
G04 APERTURE LIST*
%TA.AperFunction,ComponentPad*%
%ADD10C,0.800000*%
%TD*%
%TA.AperFunction,ComponentPad*%
%ADD11C,6.400000*%
%TD*%
%TA.AperFunction,ComponentPad*%
%ADD12O,1.500000X4.000000*%
%TD*%
%TA.AperFunction,ComponentPad*%
%ADD13O,1.700000X4.000000*%
%TD*%
%TA.AperFunction,ComponentPad*%
%ADD14C,3.200000*%
%TD*%
%TA.AperFunction,ComponentPad*%
%ADD15C,2.800000*%
%TD*%
%TA.AperFunction,ComponentPad*%
%ADD16C,2.000000*%
%TD*%
%TA.AperFunction,ViaPad*%
%ADD17C,0.700000*%
%TD*%
%TA.AperFunction,Conductor*%
%ADD18C,0.500000*%
%TD*%
%TA.AperFunction,Conductor*%
%ADD19C,0.300000*%
%TD*%
G04 APERTURE END LIST*
D10*
%TO.P,H4,1*%
%TO.N,N/C*%
X150697056Y-144802944D03*
X149000000Y-144100000D03*
X147302944Y-144802944D03*
X146600000Y-146500000D03*
X147302944Y-148197056D03*
X149000000Y-148900000D03*
X150697056Y-148197056D03*
X151400000Y-146500000D03*
D11*
X149000000Y-146500000D03*
%TD*%
D10*
%TO.P,H3,1*%
%TO.N,N/C*%
X150697056Y-104302944D03*
X149000000Y-103600000D03*
X147302944Y-104302944D03*
X146600000Y-106000000D03*
X147302944Y-107697056D03*
X149000000Y-108400000D03*
X150697056Y-107697056D03*
X151400000Y-106000000D03*
D11*
X149000000Y-106000000D03*
%TD*%
D10*
%TO.P,H2,1*%
%TO.N,N/C*%
X102697056Y-144802944D03*
X101000000Y-144100000D03*
X99302944Y-144802944D03*
X98600000Y-146500000D03*
X99302944Y-148197056D03*
X101000000Y-148900000D03*
X102697056Y-148197056D03*
X103400000Y-146500000D03*
D11*
X101000000Y-146500000D03*
%TD*%
D10*
%TO.P,H1,1*%
%TO.N,N/C*%
X102697056Y-104302944D03*
X101000000Y-103600000D03*
X99302944Y-104302944D03*
X98600000Y-106000000D03*
X99302944Y-107697056D03*
X101000000Y-108400000D03*
X102697056Y-107697056D03*
X103400000Y-106000000D03*
D11*
X101000000Y-106000000D03*
%TD*%
D12*
%TO.P,J1,*%
%TO.N,*%
X138250000Y-141500000D03*
D13*
X111850000Y-141500000D03*
D14*
%TO.P,J1,2*%
%TO.N,GND*%
X114250000Y-145000000D03*
D15*
%TO.P,J1,3*%
%TO.N,Net-(D2-Pad2)*%
X128250000Y-137750000D03*
D14*
%TO.P,J1,4*%
%TO.N,GND*%
X128250000Y-145000000D03*
D15*
%TO.P,J1,1*%
%TO.N,Net-(D1-Pad2)*%
X114250000Y-137750000D03*
%TD*%
D16*
%TO.P,J4,3*%
%TO.N,VEE*%
X121500000Y-106250000D03*
%TO.P,J4,2*%
%TO.N,GND*%
X125000000Y-106250000D03*
%TO.P,J4,1*%
%TO.N,VCC*%
X128500000Y-106250000D03*
%TD*%
%TO.P,J3,3*%
%TO.N,GND*%
X134500000Y-106250000D03*
%TO.P,J3,2*%
%TO.N,/CH2OUT+*%
X138000000Y-106250000D03*
%TO.P,J3,1*%
%TO.N,/CH2OUT-*%
X141500000Y-106250000D03*
%TD*%
%TO.P,J2,3*%
%TO.N,/CH1OUT-*%
X108500000Y-106250000D03*
%TO.P,J2,2*%
%TO.N,/CH1OUT+*%
X112000000Y-106250000D03*
%TO.P,J2,1*%
%TO.N,GND*%
X115500000Y-106250000D03*
%TD*%
D17*
%TO.N,GND*%
X123000000Y-133750000D03*
X127000000Y-133750000D03*
X117000000Y-128250000D03*
X117000000Y-125500000D03*
X133000000Y-125500000D03*
X133000000Y-128250000D03*
X127250000Y-122500000D03*
X141750000Y-122500000D03*
X145500000Y-124250000D03*
X137750000Y-114000000D03*
X123000000Y-114000000D03*
X108000000Y-114000000D03*
X112000000Y-122500000D03*
X104250000Y-124250000D03*
X130000000Y-124500000D03*
X126750000Y-125500000D03*
X121250000Y-123500000D03*
X119250000Y-123500000D03*
X98901191Y-110042500D03*
X98901191Y-114042500D03*
X98901191Y-118042500D03*
X98901191Y-122042500D03*
X98901191Y-126042500D03*
X98901191Y-130042500D03*
X98901191Y-134042500D03*
X98901191Y-138042500D03*
X98901191Y-142042500D03*
X100901191Y-120042500D03*
X100901191Y-124042500D03*
X100901191Y-128042500D03*
X100901191Y-132042500D03*
X100901191Y-136042500D03*
X100901191Y-140042500D03*
X102901191Y-126042500D03*
X102901191Y-130042500D03*
X102901191Y-134042500D03*
X102901191Y-138042500D03*
X102901191Y-142042500D03*
X103901191Y-110042500D03*
X104901191Y-128042500D03*
X104901191Y-132042500D03*
X104901191Y-136042500D03*
X104901191Y-140042500D03*
X104901191Y-144042500D03*
X105901191Y-104042500D03*
X105901191Y-108042500D03*
X105901191Y-115042500D03*
X105901191Y-121042500D03*
X105901191Y-125042500D03*
X105901191Y-147042500D03*
X106901191Y-112042500D03*
X106901191Y-130042500D03*
X106901191Y-134042500D03*
X106901191Y-138042500D03*
X106901191Y-142042500D03*
X107901191Y-127042500D03*
X107901191Y-145042500D03*
X108901191Y-110042500D03*
X108901191Y-122042500D03*
X108901191Y-132042500D03*
X108901191Y-136042500D03*
X108901191Y-140042500D03*
X108901191Y-148042500D03*
X109901191Y-104042500D03*
X109901191Y-116042500D03*
X109901191Y-129042500D03*
X110901191Y-112042500D03*
X110901191Y-126042500D03*
X110901191Y-134042500D03*
X110901191Y-138042500D03*
X110901191Y-146042500D03*
X111901191Y-131042500D03*
X112901191Y-128042500D03*
X112901191Y-148042500D03*
X113901191Y-108042500D03*
X113901191Y-113042500D03*
X113901191Y-123042500D03*
X113901191Y-133042500D03*
X113901191Y-141042500D03*
X114901191Y-126042500D03*
X114901191Y-130042500D03*
X115901191Y-110042500D03*
X115901191Y-135042500D03*
X116901191Y-132042500D03*
X116901191Y-139042500D03*
X116901191Y-143042500D03*
X116901191Y-147042500D03*
X117901191Y-105042500D03*
X117901191Y-112042500D03*
X117901191Y-116042500D03*
X118901191Y-108042500D03*
X118901191Y-119042500D03*
X118901191Y-141042500D03*
X118901191Y-145042500D03*
X119901191Y-114042500D03*
X119901191Y-126042500D03*
X119901191Y-130042500D03*
X119901191Y-134042500D03*
X119901191Y-138042500D03*
X119901191Y-148042500D03*
X120901191Y-110042500D03*
X120901191Y-143042500D03*
X121901191Y-136042500D03*
X121901191Y-140042500D03*
X121901191Y-146042500D03*
X122901191Y-112042500D03*
X122901191Y-125042500D03*
X122901191Y-129042500D03*
X123901191Y-132042500D03*
X123901191Y-138042500D03*
X123901191Y-142042500D03*
X123901191Y-148042500D03*
X124901191Y-127042500D03*
X124901191Y-135042500D03*
X124901191Y-145042500D03*
X125901191Y-130042500D03*
X125901191Y-140042500D03*
X126901191Y-108042500D03*
X127901191Y-142042500D03*
X127901191Y-148042500D03*
X128901191Y-111042500D03*
X128901191Y-115042500D03*
X128901191Y-135042500D03*
X129901191Y-120042500D03*
X129901191Y-126042500D03*
X129901191Y-130042500D03*
X129901191Y-140042500D03*
X130901191Y-105042500D03*
X130901191Y-109042500D03*
X130901191Y-113042500D03*
X130901191Y-143042500D03*
X130901191Y-147042500D03*
X131901191Y-138042500D03*
X132901191Y-111042500D03*
X132901191Y-121042500D03*
X132901191Y-131042500D03*
X132901191Y-135042500D03*
X132901191Y-141042500D03*
X132901191Y-145042500D03*
X133901191Y-124042500D03*
X133901191Y-148042500D03*
X134901191Y-109042500D03*
X134901191Y-127042500D03*
X134901191Y-133042500D03*
X134901191Y-137042500D03*
X134901191Y-143042500D03*
X135901191Y-112042500D03*
X135901191Y-130042500D03*
X135901191Y-140042500D03*
X135901191Y-146042500D03*
X136901191Y-125042500D03*
X136901191Y-135042500D03*
X137901191Y-110042500D03*
X137901191Y-128042500D03*
X137901191Y-132042500D03*
X137901191Y-138042500D03*
X137901191Y-148042500D03*
X138901191Y-118042500D03*
X138901191Y-145042500D03*
X139901191Y-112042500D03*
X139901191Y-124042500D03*
X139901191Y-130042500D03*
X139901191Y-134042500D03*
X140901191Y-104042500D03*
X140901191Y-127042500D03*
X140901191Y-137042500D03*
X140901191Y-141042500D03*
X140901191Y-147042500D03*
X141901191Y-132042500D03*
X141901191Y-144042500D03*
X142901191Y-125042500D03*
X142901191Y-129042500D03*
X142901191Y-135042500D03*
X142901191Y-139042500D03*
X143901191Y-105042500D03*
X143901191Y-109042500D03*
X143901191Y-113042500D03*
X143901191Y-121042500D03*
X143901191Y-142042500D03*
X143901191Y-146042500D03*
X144901191Y-127042500D03*
X144901191Y-131042500D03*
X144901191Y-137042500D03*
X145901191Y-134042500D03*
X145901191Y-140042500D03*
X146901191Y-110042500D03*
X146901191Y-125042500D03*
X146901191Y-129042500D03*
X147901191Y-119042500D03*
X147901191Y-132042500D03*
X147901191Y-136042500D03*
X147901191Y-142042500D03*
X148901191Y-122042500D03*
X148901191Y-127042500D03*
X148901191Y-139042500D03*
X149901191Y-111042500D03*
X149901191Y-115042500D03*
X149901191Y-130042500D03*
X149901191Y-134042500D03*
X150901191Y-118042500D03*
X150901191Y-124042500D03*
X150901191Y-137042500D03*
X150901191Y-141042500D03*
X124250000Y-122500000D03*
X125500000Y-120500000D03*
X135000000Y-120000000D03*
X135500000Y-118000000D03*
X116250000Y-122500000D03*
X110500000Y-117750000D03*
X103250000Y-112250000D03*
X103000000Y-118250000D03*
X114750000Y-118750000D03*
X121500000Y-121250000D03*
X116250000Y-120000000D03*
%TO.N,VEE*%
X121250000Y-122500000D03*
X119450000Y-122500000D03*
X129312500Y-123750000D03*
X127500000Y-123750000D03*
%TD*%
D18*
%TO.N,VEE*%
X119450000Y-122500000D02*
X121250000Y-122500000D01*
X129312500Y-123750000D02*
X127500000Y-123750000D01*
%TD*%
D19*
%TO.N,GND*%
G36*
X146673260Y-103164860D02*
G01*
X146164860Y-103673260D01*
X145765412Y-104271077D01*
X145490267Y-104935334D01*
X145350000Y-105640506D01*
X145350000Y-106359494D01*
X145490267Y-107064666D01*
X145765412Y-107728923D01*
X146164860Y-108326740D01*
X146673260Y-108835140D01*
X147271077Y-109234588D01*
X147935334Y-109509733D01*
X148640506Y-109650000D01*
X149359494Y-109650000D01*
X150064666Y-109509733D01*
X150728923Y-109234588D01*
X151326740Y-108835140D01*
X151835140Y-108326740D01*
X152025000Y-108042594D01*
X152025001Y-144457407D01*
X151835140Y-144173260D01*
X151326740Y-143664860D01*
X150728923Y-143265412D01*
X150064666Y-142990267D01*
X149359494Y-142850000D01*
X148640506Y-142850000D01*
X147935334Y-142990267D01*
X147271077Y-143265412D01*
X146673260Y-143664860D01*
X146164860Y-144173260D01*
X145765412Y-144771077D01*
X145490267Y-145435334D01*
X145350000Y-146140506D01*
X145350000Y-146859494D01*
X145490267Y-147564666D01*
X145765412Y-148228923D01*
X146164860Y-148826740D01*
X146673260Y-149335140D01*
X146957406Y-149525000D01*
X103042594Y-149525000D01*
X103326740Y-149335140D01*
X103835140Y-148826740D01*
X104234588Y-148228923D01*
X104509733Y-147564666D01*
X104650000Y-146859494D01*
X104650000Y-146445927D01*
X112945494Y-146445927D01*
X113121540Y-146723322D01*
X113479426Y-146910361D01*
X113866926Y-147023985D01*
X114269146Y-147059829D01*
X114670630Y-147016515D01*
X115055951Y-146895707D01*
X115378460Y-146723322D01*
X115554506Y-146445927D01*
X126945494Y-146445927D01*
X127121540Y-146723322D01*
X127479426Y-146910361D01*
X127866926Y-147023985D01*
X128269146Y-147059829D01*
X128670630Y-147016515D01*
X129055951Y-146895707D01*
X129378460Y-146723322D01*
X129554506Y-146445927D01*
X128250000Y-145141421D01*
X126945494Y-146445927D01*
X115554506Y-146445927D01*
X114250000Y-145141421D01*
X112945494Y-146445927D01*
X104650000Y-146445927D01*
X104650000Y-146140506D01*
X104509733Y-145435334D01*
X104234588Y-144771077D01*
X103835140Y-144173260D01*
X103326740Y-143664860D01*
X102728923Y-143265412D01*
X102064666Y-142990267D01*
X101359494Y-142850000D01*
X100640506Y-142850000D01*
X99935334Y-142990267D01*
X99271077Y-143265412D01*
X98673260Y-143664860D01*
X98164860Y-144173260D01*
X97975000Y-144457406D01*
X97975000Y-140286137D01*
X110550000Y-140286137D01*
X110550001Y-142713864D01*
X110568811Y-142904845D01*
X110643146Y-143149896D01*
X110763861Y-143375736D01*
X110926314Y-143573687D01*
X111124265Y-143736140D01*
X111350105Y-143856855D01*
X111595156Y-143931190D01*
X111850000Y-143956290D01*
X112104845Y-143931190D01*
X112349896Y-143856855D01*
X112575736Y-143736140D01*
X112723473Y-143614897D01*
X112804071Y-143695495D01*
X112526678Y-143871540D01*
X112339639Y-144229426D01*
X112226015Y-144616926D01*
X112190171Y-145019146D01*
X112233485Y-145420630D01*
X112354293Y-145805951D01*
X112526678Y-146128460D01*
X112804073Y-146304506D01*
X114108579Y-145000000D01*
X114391421Y-145000000D01*
X115695927Y-146304506D01*
X115973322Y-146128460D01*
X116160361Y-145770574D01*
X116273985Y-145383074D01*
X116306416Y-145019146D01*
X126190171Y-145019146D01*
X126233485Y-145420630D01*
X126354293Y-145805951D01*
X126526678Y-146128460D01*
X126804073Y-146304506D01*
X128108579Y-145000000D01*
X128391421Y-145000000D01*
X129695927Y-146304506D01*
X129973322Y-146128460D01*
X130160361Y-145770574D01*
X130273985Y-145383074D01*
X130309829Y-144980854D01*
X130266515Y-144579370D01*
X130145707Y-144194049D01*
X129973322Y-143871540D01*
X129695927Y-143695494D01*
X128391421Y-145000000D01*
X128108579Y-145000000D01*
X126804073Y-143695494D01*
X126526678Y-143871540D01*
X126339639Y-144229426D01*
X126226015Y-144616926D01*
X126190171Y-145019146D01*
X116306416Y-145019146D01*
X116309829Y-144980854D01*
X116266515Y-144579370D01*
X116145707Y-144194049D01*
X115973322Y-143871540D01*
X115695927Y-143695494D01*
X114391421Y-145000000D01*
X114108579Y-145000000D01*
X114094437Y-144985858D01*
X114235858Y-144844437D01*
X114250000Y-144858579D01*
X115554506Y-143554073D01*
X126945494Y-143554073D01*
X128250000Y-144858579D01*
X129554506Y-143554073D01*
X129378460Y-143276678D01*
X129020574Y-143089639D01*
X128633074Y-142976015D01*
X128230854Y-142940171D01*
X127829370Y-142983485D01*
X127444049Y-143104293D01*
X127121540Y-143276678D01*
X126945494Y-143554073D01*
X115554506Y-143554073D01*
X115378460Y-143276678D01*
X115020574Y-143089639D01*
X114633074Y-142976015D01*
X114230854Y-142940171D01*
X113829370Y-142983485D01*
X113444049Y-143104293D01*
X113121540Y-143276678D01*
X112945495Y-143554071D01*
X112864643Y-143473219D01*
X112817218Y-143520644D01*
X112936140Y-143375736D01*
X113056855Y-143149896D01*
X113131190Y-142904845D01*
X113150000Y-142713864D01*
X113150000Y-140286136D01*
X113140635Y-140191051D01*
X137050000Y-140191051D01*
X137050001Y-142808950D01*
X137067364Y-142985241D01*
X137135982Y-143211442D01*
X137247410Y-143419910D01*
X137397367Y-143602634D01*
X137580091Y-143752591D01*
X137788559Y-143864019D01*
X138014760Y-143932637D01*
X138250000Y-143955806D01*
X138485241Y-143932637D01*
X138711442Y-143864019D01*
X138919910Y-143752591D01*
X139102634Y-143602634D01*
X139252591Y-143419910D01*
X139364019Y-143211442D01*
X139432637Y-142985241D01*
X139450000Y-142808950D01*
X139450000Y-140191050D01*
X139432637Y-140014759D01*
X139364019Y-139788558D01*
X139252591Y-139580090D01*
X139102634Y-139397366D01*
X138919909Y-139247409D01*
X138711441Y-139135981D01*
X138485240Y-139067363D01*
X138250000Y-139044194D01*
X138014759Y-139067363D01*
X137788558Y-139135981D01*
X137580090Y-139247409D01*
X137397366Y-139397366D01*
X137247409Y-139580091D01*
X137135981Y-139788559D01*
X137067363Y-140014760D01*
X137050000Y-140191051D01*
X113140635Y-140191051D01*
X113131190Y-140095155D01*
X113056855Y-139850104D01*
X112936140Y-139624264D01*
X112773687Y-139426313D01*
X112575735Y-139263860D01*
X112349895Y-139143145D01*
X112104844Y-139068810D01*
X111850000Y-139043710D01*
X111595155Y-139068810D01*
X111350104Y-139143145D01*
X111124264Y-139263860D01*
X110926313Y-139426313D01*
X110763860Y-139624265D01*
X110643145Y-139850105D01*
X110568810Y-140095156D01*
X110550000Y-140286137D01*
X97975000Y-140286137D01*
X97975000Y-137567791D01*
X112400000Y-137567791D01*
X112400000Y-137932209D01*
X112471095Y-138289625D01*
X112610552Y-138626303D01*
X112813011Y-138929306D01*
X113070694Y-139186989D01*
X113373697Y-139389448D01*
X113710375Y-139528905D01*
X114067791Y-139600000D01*
X114432209Y-139600000D01*
X114789625Y-139528905D01*
X115126303Y-139389448D01*
X115429306Y-139186989D01*
X115686989Y-138929306D01*
X115889448Y-138626303D01*
X116028905Y-138289625D01*
X116100000Y-137932209D01*
X116100000Y-137567791D01*
X126400000Y-137567791D01*
X126400000Y-137932209D01*
X126471095Y-138289625D01*
X126610552Y-138626303D01*
X126813011Y-138929306D01*
X127070694Y-139186989D01*
X127373697Y-139389448D01*
X127710375Y-139528905D01*
X128067791Y-139600000D01*
X128432209Y-139600000D01*
X128789625Y-139528905D01*
X129126303Y-139389448D01*
X129429306Y-139186989D01*
X129686989Y-138929306D01*
X129889448Y-138626303D01*
X130028905Y-138289625D01*
X130100000Y-137932209D01*
X130100000Y-137567791D01*
X130028905Y-137210375D01*
X129889448Y-136873697D01*
X129686989Y-136570694D01*
X129429306Y-136313011D01*
X129126303Y-136110552D01*
X128789625Y-135971095D01*
X128432209Y-135900000D01*
X128067791Y-135900000D01*
X127710375Y-135971095D01*
X127373697Y-136110552D01*
X127070694Y-136313011D01*
X126813011Y-136570694D01*
X126610552Y-136873697D01*
X126471095Y-137210375D01*
X126400000Y-137567791D01*
X116100000Y-137567791D01*
X116028905Y-137210375D01*
X115889448Y-136873697D01*
X115686989Y-136570694D01*
X115429306Y-136313011D01*
X115126303Y-136110552D01*
X114789625Y-135971095D01*
X114432209Y-135900000D01*
X114067791Y-135900000D01*
X113710375Y-135971095D01*
X113373697Y-136110552D01*
X113070694Y-136313011D01*
X112813011Y-136570694D01*
X112610552Y-136873697D01*
X112471095Y-137210375D01*
X112400000Y-137567791D01*
X97975000Y-137567791D01*
X97975000Y-123671207D01*
X126700000Y-123671207D01*
X126700000Y-123828793D01*
X126730743Y-123983351D01*
X126791049Y-124128942D01*
X126878599Y-124259970D01*
X126990030Y-124371401D01*
X127121058Y-124458951D01*
X127266649Y-124519257D01*
X127421207Y-124550000D01*
X127578793Y-124550000D01*
X127733351Y-124519257D01*
X127878942Y-124458951D01*
X127892338Y-124450000D01*
X128920162Y-124450000D01*
X128933558Y-124458951D01*
X129079149Y-124519257D01*
X129233707Y-124550000D01*
X129391293Y-124550000D01*
X129545851Y-124519257D01*
X129691442Y-124458951D01*
X129822470Y-124371401D01*
X129933901Y-124259970D01*
X130021451Y-124128942D01*
X130081757Y-123983351D01*
X130112500Y-123828793D01*
X130112500Y-123671207D01*
X130081757Y-123516649D01*
X130021451Y-123371058D01*
X129933901Y-123240030D01*
X129822470Y-123128599D01*
X129691442Y-123041049D01*
X129545851Y-122980743D01*
X129391293Y-122950000D01*
X129233707Y-122950000D01*
X129079149Y-122980743D01*
X128933558Y-123041049D01*
X128920162Y-123050000D01*
X127892338Y-123050000D01*
X127878942Y-123041049D01*
X127733351Y-122980743D01*
X127578793Y-122950000D01*
X127421207Y-122950000D01*
X127266649Y-122980743D01*
X127121058Y-123041049D01*
X126990030Y-123128599D01*
X126878599Y-123240030D01*
X126791049Y-123371058D01*
X126730743Y-123516649D01*
X126700000Y-123671207D01*
X97975000Y-123671207D01*
X97975000Y-122421207D01*
X118650000Y-122421207D01*
X118650000Y-122578793D01*
X118680743Y-122733351D01*
X118741049Y-122878942D01*
X118828599Y-123009970D01*
X118940030Y-123121401D01*
X119071058Y-123208951D01*
X119216649Y-123269257D01*
X119371207Y-123300000D01*
X119528793Y-123300000D01*
X119683351Y-123269257D01*
X119828942Y-123208951D01*
X119842338Y-123200000D01*
X120857662Y-123200000D01*
X120871058Y-123208951D01*
X121016649Y-123269257D01*
X121171207Y-123300000D01*
X121328793Y-123300000D01*
X121483351Y-123269257D01*
X121628942Y-123208951D01*
X121759970Y-123121401D01*
X121871401Y-123009970D01*
X121958951Y-122878942D01*
X122019257Y-122733351D01*
X122050000Y-122578793D01*
X122050000Y-122421207D01*
X122019257Y-122266649D01*
X121958951Y-122121058D01*
X121871401Y-121990030D01*
X121759970Y-121878599D01*
X121628942Y-121791049D01*
X121483351Y-121730743D01*
X121328793Y-121700000D01*
X121171207Y-121700000D01*
X121016649Y-121730743D01*
X120871058Y-121791049D01*
X120857662Y-121800000D01*
X119842338Y-121800000D01*
X119828942Y-121791049D01*
X119683351Y-121730743D01*
X119528793Y-121700000D01*
X119371207Y-121700000D01*
X119216649Y-121730743D01*
X119071058Y-121791049D01*
X118940030Y-121878599D01*
X118828599Y-121990030D01*
X118741049Y-122121058D01*
X118680743Y-122266649D01*
X118650000Y-122421207D01*
X97975000Y-122421207D01*
X97975000Y-108042594D01*
X98164860Y-108326740D01*
X98673260Y-108835140D01*
X99271077Y-109234588D01*
X99935334Y-109509733D01*
X100640506Y-109650000D01*
X101359494Y-109650000D01*
X102064666Y-109509733D01*
X102728923Y-109234588D01*
X103326740Y-108835140D01*
X103835140Y-108326740D01*
X104234588Y-107728923D01*
X104509733Y-107064666D01*
X104650000Y-106359494D01*
X104650000Y-106107187D01*
X107050000Y-106107187D01*
X107050000Y-106392813D01*
X107105723Y-106672949D01*
X107215027Y-106936833D01*
X107373711Y-107174321D01*
X107575679Y-107376289D01*
X107813167Y-107534973D01*
X108077051Y-107644277D01*
X108357187Y-107700000D01*
X108642813Y-107700000D01*
X108922949Y-107644277D01*
X109186833Y-107534973D01*
X109424321Y-107376289D01*
X109626289Y-107174321D01*
X109784973Y-106936833D01*
X109894277Y-106672949D01*
X109950000Y-106392813D01*
X109950000Y-106107187D01*
X110550000Y-106107187D01*
X110550000Y-106392813D01*
X110605723Y-106672949D01*
X110715027Y-106936833D01*
X110873711Y-107174321D01*
X111075679Y-107376289D01*
X111313167Y-107534973D01*
X111577051Y-107644277D01*
X111857187Y-107700000D01*
X112142813Y-107700000D01*
X112422949Y-107644277D01*
X112686833Y-107534973D01*
X112924321Y-107376289D01*
X113031816Y-107268794D01*
X114622628Y-107268794D01*
X114726509Y-107484750D01*
X114982259Y-107611925D01*
X115257906Y-107686762D01*
X115542856Y-107706386D01*
X115826159Y-107670042D01*
X116096928Y-107579125D01*
X116273491Y-107484750D01*
X116377372Y-107268794D01*
X115500000Y-106391421D01*
X114622628Y-107268794D01*
X113031816Y-107268794D01*
X113126289Y-107174321D01*
X113284973Y-106936833D01*
X113394277Y-106672949D01*
X113450000Y-106392813D01*
X113450000Y-106292856D01*
X114043614Y-106292856D01*
X114079958Y-106576159D01*
X114170875Y-106846928D01*
X114265250Y-107023491D01*
X114481206Y-107127372D01*
X115358579Y-106250000D01*
X115641421Y-106250000D01*
X116518794Y-107127372D01*
X116734750Y-107023491D01*
X116861925Y-106767741D01*
X116936762Y-106492094D01*
X116956386Y-106207144D01*
X116943563Y-106107187D01*
X120050000Y-106107187D01*
X120050000Y-106392813D01*
X120105723Y-106672949D01*
X120215027Y-106936833D01*
X120373711Y-107174321D01*
X120575679Y-107376289D01*
X120813167Y-107534973D01*
X121077051Y-107644277D01*
X121357187Y-107700000D01*
X121642813Y-107700000D01*
X121922949Y-107644277D01*
X122186833Y-107534973D01*
X122424321Y-107376289D01*
X122531816Y-107268794D01*
X124122628Y-107268794D01*
X124226509Y-107484750D01*
X124482259Y-107611925D01*
X124757906Y-107686762D01*
X125042856Y-107706386D01*
X125326159Y-107670042D01*
X125596928Y-107579125D01*
X125773491Y-107484750D01*
X125877372Y-107268794D01*
X125000000Y-106391421D01*
X124122628Y-107268794D01*
X122531816Y-107268794D01*
X122626289Y-107174321D01*
X122784973Y-106936833D01*
X122894277Y-106672949D01*
X122950000Y-106392813D01*
X122950000Y-106292856D01*
X123543614Y-106292856D01*
X123579958Y-106576159D01*
X123670875Y-106846928D01*
X123765250Y-107023491D01*
X123981206Y-107127372D01*
X124858579Y-106250000D01*
X125141421Y-106250000D01*
X126018794Y-107127372D01*
X126234750Y-107023491D01*
X126361925Y-106767741D01*
X126436762Y-106492094D01*
X126456386Y-106207144D01*
X126443563Y-106107187D01*
X127050000Y-106107187D01*
X127050000Y-106392813D01*
X127105723Y-106672949D01*
X127215027Y-106936833D01*
X127373711Y-107174321D01*
X127575679Y-107376289D01*
X127813167Y-107534973D01*
X128077051Y-107644277D01*
X128357187Y-107700000D01*
X128642813Y-107700000D01*
X128922949Y-107644277D01*
X129186833Y-107534973D01*
X129424321Y-107376289D01*
X129531816Y-107268794D01*
X133622628Y-107268794D01*
X133726509Y-107484750D01*
X133982259Y-107611925D01*
X134257906Y-107686762D01*
X134542856Y-107706386D01*
X134826159Y-107670042D01*
X135096928Y-107579125D01*
X135273491Y-107484750D01*
X135377372Y-107268794D01*
X134500000Y-106391421D01*
X133622628Y-107268794D01*
X129531816Y-107268794D01*
X129626289Y-107174321D01*
X129784973Y-106936833D01*
X129894277Y-106672949D01*
X129950000Y-106392813D01*
X129950000Y-106292856D01*
X133043614Y-106292856D01*
X133079958Y-106576159D01*
X133170875Y-106846928D01*
X133265250Y-107023491D01*
X133481206Y-107127372D01*
X134358579Y-106250000D01*
X134641421Y-106250000D01*
X135518794Y-107127372D01*
X135734750Y-107023491D01*
X135861925Y-106767741D01*
X135936762Y-106492094D01*
X135956386Y-106207144D01*
X135943563Y-106107187D01*
X136550000Y-106107187D01*
X136550000Y-106392813D01*
X136605723Y-106672949D01*
X136715027Y-106936833D01*
X136873711Y-107174321D01*
X137075679Y-107376289D01*
X137313167Y-107534973D01*
X137577051Y-107644277D01*
X137857187Y-107700000D01*
X138142813Y-107700000D01*
X138422949Y-107644277D01*
X138686833Y-107534973D01*
X138924321Y-107376289D01*
X139126289Y-107174321D01*
X139284973Y-106936833D01*
X139394277Y-106672949D01*
X139450000Y-106392813D01*
X139450000Y-106107187D01*
X140050000Y-106107187D01*
X140050000Y-106392813D01*
X140105723Y-106672949D01*
X140215027Y-106936833D01*
X140373711Y-107174321D01*
X140575679Y-107376289D01*
X140813167Y-107534973D01*
X141077051Y-107644277D01*
X141357187Y-107700000D01*
X141642813Y-107700000D01*
X141922949Y-107644277D01*
X142186833Y-107534973D01*
X142424321Y-107376289D01*
X142626289Y-107174321D01*
X142784973Y-106936833D01*
X142894277Y-106672949D01*
X142950000Y-106392813D01*
X142950000Y-106107187D01*
X142894277Y-105827051D01*
X142784973Y-105563167D01*
X142626289Y-105325679D01*
X142424321Y-105123711D01*
X142186833Y-104965027D01*
X141922949Y-104855723D01*
X141642813Y-104800000D01*
X141357187Y-104800000D01*
X141077051Y-104855723D01*
X140813167Y-104965027D01*
X140575679Y-105123711D01*
X140373711Y-105325679D01*
X140215027Y-105563167D01*
X140105723Y-105827051D01*
X140050000Y-106107187D01*
X139450000Y-106107187D01*
X139394277Y-105827051D01*
X139284973Y-105563167D01*
X139126289Y-105325679D01*
X138924321Y-105123711D01*
X138686833Y-104965027D01*
X138422949Y-104855723D01*
X138142813Y-104800000D01*
X137857187Y-104800000D01*
X137577051Y-104855723D01*
X137313167Y-104965027D01*
X137075679Y-105123711D01*
X136873711Y-105325679D01*
X136715027Y-105563167D01*
X136605723Y-105827051D01*
X136550000Y-106107187D01*
X135943563Y-106107187D01*
X135920042Y-105923841D01*
X135829125Y-105653072D01*
X135734750Y-105476509D01*
X135518794Y-105372628D01*
X134641421Y-106250000D01*
X134358579Y-106250000D01*
X133481206Y-105372628D01*
X133265250Y-105476509D01*
X133138075Y-105732259D01*
X133063238Y-106007906D01*
X133043614Y-106292856D01*
X129950000Y-106292856D01*
X129950000Y-106107187D01*
X129894277Y-105827051D01*
X129784973Y-105563167D01*
X129626289Y-105325679D01*
X129531816Y-105231206D01*
X133622628Y-105231206D01*
X134500000Y-106108579D01*
X135377372Y-105231206D01*
X135273491Y-105015250D01*
X135017741Y-104888075D01*
X134742094Y-104813238D01*
X134457144Y-104793614D01*
X134173841Y-104829958D01*
X133903072Y-104920875D01*
X133726509Y-105015250D01*
X133622628Y-105231206D01*
X129531816Y-105231206D01*
X129424321Y-105123711D01*
X129186833Y-104965027D01*
X128922949Y-104855723D01*
X128642813Y-104800000D01*
X128357187Y-104800000D01*
X128077051Y-104855723D01*
X127813167Y-104965027D01*
X127575679Y-105123711D01*
X127373711Y-105325679D01*
X127215027Y-105563167D01*
X127105723Y-105827051D01*
X127050000Y-106107187D01*
X126443563Y-106107187D01*
X126420042Y-105923841D01*
X126329125Y-105653072D01*
X126234750Y-105476509D01*
X126018794Y-105372628D01*
X125141421Y-106250000D01*
X124858579Y-106250000D01*
X123981206Y-105372628D01*
X123765250Y-105476509D01*
X123638075Y-105732259D01*
X123563238Y-106007906D01*
X123543614Y-106292856D01*
X122950000Y-106292856D01*
X122950000Y-106107187D01*
X122894277Y-105827051D01*
X122784973Y-105563167D01*
X122626289Y-105325679D01*
X122531816Y-105231206D01*
X124122628Y-105231206D01*
X125000000Y-106108579D01*
X125877372Y-105231206D01*
X125773491Y-105015250D01*
X125517741Y-104888075D01*
X125242094Y-104813238D01*
X124957144Y-104793614D01*
X124673841Y-104829958D01*
X124403072Y-104920875D01*
X124226509Y-105015250D01*
X124122628Y-105231206D01*
X122531816Y-105231206D01*
X122424321Y-105123711D01*
X122186833Y-104965027D01*
X121922949Y-104855723D01*
X121642813Y-104800000D01*
X121357187Y-104800000D01*
X121077051Y-104855723D01*
X120813167Y-104965027D01*
X120575679Y-105123711D01*
X120373711Y-105325679D01*
X120215027Y-105563167D01*
X120105723Y-105827051D01*
X120050000Y-106107187D01*
X116943563Y-106107187D01*
X116920042Y-105923841D01*
X116829125Y-105653072D01*
X116734750Y-105476509D01*
X116518794Y-105372628D01*
X115641421Y-106250000D01*
X115358579Y-106250000D01*
X114481206Y-105372628D01*
X114265250Y-105476509D01*
X114138075Y-105732259D01*
X114063238Y-106007906D01*
X114043614Y-106292856D01*
X113450000Y-106292856D01*
X113450000Y-106107187D01*
X113394277Y-105827051D01*
X113284973Y-105563167D01*
X113126289Y-105325679D01*
X113031816Y-105231206D01*
X114622628Y-105231206D01*
X115500000Y-106108579D01*
X116377372Y-105231206D01*
X116273491Y-105015250D01*
X116017741Y-104888075D01*
X115742094Y-104813238D01*
X115457144Y-104793614D01*
X115173841Y-104829958D01*
X114903072Y-104920875D01*
X114726509Y-105015250D01*
X114622628Y-105231206D01*
X113031816Y-105231206D01*
X112924321Y-105123711D01*
X112686833Y-104965027D01*
X112422949Y-104855723D01*
X112142813Y-104800000D01*
X111857187Y-104800000D01*
X111577051Y-104855723D01*
X111313167Y-104965027D01*
X111075679Y-105123711D01*
X110873711Y-105325679D01*
X110715027Y-105563167D01*
X110605723Y-105827051D01*
X110550000Y-106107187D01*
X109950000Y-106107187D01*
X109894277Y-105827051D01*
X109784973Y-105563167D01*
X109626289Y-105325679D01*
X109424321Y-105123711D01*
X109186833Y-104965027D01*
X108922949Y-104855723D01*
X108642813Y-104800000D01*
X108357187Y-104800000D01*
X108077051Y-104855723D01*
X107813167Y-104965027D01*
X107575679Y-105123711D01*
X107373711Y-105325679D01*
X107215027Y-105563167D01*
X107105723Y-105827051D01*
X107050000Y-106107187D01*
X104650000Y-106107187D01*
X104650000Y-105640506D01*
X104509733Y-104935334D01*
X104234588Y-104271077D01*
X103835140Y-103673260D01*
X103326740Y-103164860D01*
X103042594Y-102975000D01*
X146957406Y-102975000D01*
X146673260Y-103164860D01*
G37*
X146673260Y-103164860D02*
X146164860Y-103673260D01*
X145765412Y-104271077D01*
X145490267Y-104935334D01*
X145350000Y-105640506D01*
X145350000Y-106359494D01*
X145490267Y-107064666D01*
X145765412Y-107728923D01*
X146164860Y-108326740D01*
X146673260Y-108835140D01*
X147271077Y-109234588D01*
X147935334Y-109509733D01*
X148640506Y-109650000D01*
X149359494Y-109650000D01*
X150064666Y-109509733D01*
X150728923Y-109234588D01*
X151326740Y-108835140D01*
X151835140Y-108326740D01*
X152025000Y-108042594D01*
X152025001Y-144457407D01*
X151835140Y-144173260D01*
X151326740Y-143664860D01*
X150728923Y-143265412D01*
X150064666Y-142990267D01*
X149359494Y-142850000D01*
X148640506Y-142850000D01*
X147935334Y-142990267D01*
X147271077Y-143265412D01*
X146673260Y-143664860D01*
X146164860Y-144173260D01*
X145765412Y-144771077D01*
X145490267Y-145435334D01*
X145350000Y-146140506D01*
X145350000Y-146859494D01*
X145490267Y-147564666D01*
X145765412Y-148228923D01*
X146164860Y-148826740D01*
X146673260Y-149335140D01*
X146957406Y-149525000D01*
X103042594Y-149525000D01*
X103326740Y-149335140D01*
X103835140Y-148826740D01*
X104234588Y-148228923D01*
X104509733Y-147564666D01*
X104650000Y-146859494D01*
X104650000Y-146445927D01*
X112945494Y-146445927D01*
X113121540Y-146723322D01*
X113479426Y-146910361D01*
X113866926Y-147023985D01*
X114269146Y-147059829D01*
X114670630Y-147016515D01*
X115055951Y-146895707D01*
X115378460Y-146723322D01*
X115554506Y-146445927D01*
X126945494Y-146445927D01*
X127121540Y-146723322D01*
X127479426Y-146910361D01*
X127866926Y-147023985D01*
X128269146Y-147059829D01*
X128670630Y-147016515D01*
X129055951Y-146895707D01*
X129378460Y-146723322D01*
X129554506Y-146445927D01*
X128250000Y-145141421D01*
X126945494Y-146445927D01*
X115554506Y-146445927D01*
X114250000Y-145141421D01*
X112945494Y-146445927D01*
X104650000Y-146445927D01*
X104650000Y-146140506D01*
X104509733Y-145435334D01*
X104234588Y-144771077D01*
X103835140Y-144173260D01*
X103326740Y-143664860D01*
X102728923Y-143265412D01*
X102064666Y-142990267D01*
X101359494Y-142850000D01*
X100640506Y-142850000D01*
X99935334Y-142990267D01*
X99271077Y-143265412D01*
X98673260Y-143664860D01*
X98164860Y-144173260D01*
X97975000Y-144457406D01*
X97975000Y-140286137D01*
X110550000Y-140286137D01*
X110550001Y-142713864D01*
X110568811Y-142904845D01*
X110643146Y-143149896D01*
X110763861Y-143375736D01*
X110926314Y-143573687D01*
X111124265Y-143736140D01*
X111350105Y-143856855D01*
X111595156Y-143931190D01*
X111850000Y-143956290D01*
X112104845Y-143931190D01*
X112349896Y-143856855D01*
X112575736Y-143736140D01*
X112723473Y-143614897D01*
X112804071Y-143695495D01*
X112526678Y-143871540D01*
X112339639Y-144229426D01*
X112226015Y-144616926D01*
X112190171Y-145019146D01*
X112233485Y-145420630D01*
X112354293Y-145805951D01*
X112526678Y-146128460D01*
X112804073Y-146304506D01*
X114108579Y-145000000D01*
X114391421Y-145000000D01*
X115695927Y-146304506D01*
X115973322Y-146128460D01*
X116160361Y-145770574D01*
X116273985Y-145383074D01*
X116306416Y-145019146D01*
X126190171Y-145019146D01*
X126233485Y-145420630D01*
X126354293Y-145805951D01*
X126526678Y-146128460D01*
X126804073Y-146304506D01*
X128108579Y-145000000D01*
X128391421Y-145000000D01*
X129695927Y-146304506D01*
X129973322Y-146128460D01*
X130160361Y-145770574D01*
X130273985Y-145383074D01*
X130309829Y-144980854D01*
X130266515Y-144579370D01*
X130145707Y-144194049D01*
X129973322Y-143871540D01*
X129695927Y-143695494D01*
X128391421Y-145000000D01*
X128108579Y-145000000D01*
X126804073Y-143695494D01*
X126526678Y-143871540D01*
X126339639Y-144229426D01*
X126226015Y-144616926D01*
X126190171Y-145019146D01*
X116306416Y-145019146D01*
X116309829Y-144980854D01*
X116266515Y-144579370D01*
X116145707Y-144194049D01*
X115973322Y-143871540D01*
X115695927Y-143695494D01*
X114391421Y-145000000D01*
X114108579Y-145000000D01*
X114094437Y-144985858D01*
X114235858Y-144844437D01*
X114250000Y-144858579D01*
X115554506Y-143554073D01*
X126945494Y-143554073D01*
X128250000Y-144858579D01*
X129554506Y-143554073D01*
X129378460Y-143276678D01*
X129020574Y-143089639D01*
X128633074Y-142976015D01*
X128230854Y-142940171D01*
X127829370Y-142983485D01*
X127444049Y-143104293D01*
X127121540Y-143276678D01*
X126945494Y-143554073D01*
X115554506Y-143554073D01*
X115378460Y-143276678D01*
X115020574Y-143089639D01*
X114633074Y-142976015D01*
X114230854Y-142940171D01*
X113829370Y-142983485D01*
X113444049Y-143104293D01*
X113121540Y-143276678D01*
X112945495Y-143554071D01*
X112864643Y-143473219D01*
X112817218Y-143520644D01*
X112936140Y-143375736D01*
X113056855Y-143149896D01*
X113131190Y-142904845D01*
X113150000Y-142713864D01*
X113150000Y-140286136D01*
X113140635Y-140191051D01*
X137050000Y-140191051D01*
X137050001Y-142808950D01*
X137067364Y-142985241D01*
X137135982Y-143211442D01*
X137247410Y-143419910D01*
X137397367Y-143602634D01*
X137580091Y-143752591D01*
X137788559Y-143864019D01*
X138014760Y-143932637D01*
X138250000Y-143955806D01*
X138485241Y-143932637D01*
X138711442Y-143864019D01*
X138919910Y-143752591D01*
X139102634Y-143602634D01*
X139252591Y-143419910D01*
X139364019Y-143211442D01*
X139432637Y-142985241D01*
X139450000Y-142808950D01*
X139450000Y-140191050D01*
X139432637Y-140014759D01*
X139364019Y-139788558D01*
X139252591Y-139580090D01*
X139102634Y-139397366D01*
X138919909Y-139247409D01*
X138711441Y-139135981D01*
X138485240Y-139067363D01*
X138250000Y-139044194D01*
X138014759Y-139067363D01*
X137788558Y-139135981D01*
X137580090Y-139247409D01*
X137397366Y-139397366D01*
X137247409Y-139580091D01*
X137135981Y-139788559D01*
X137067363Y-140014760D01*
X137050000Y-140191051D01*
X113140635Y-140191051D01*
X113131190Y-140095155D01*
X113056855Y-139850104D01*
X112936140Y-139624264D01*
X112773687Y-139426313D01*
X112575735Y-139263860D01*
X112349895Y-139143145D01*
X112104844Y-139068810D01*
X111850000Y-139043710D01*
X111595155Y-139068810D01*
X111350104Y-139143145D01*
X111124264Y-139263860D01*
X110926313Y-139426313D01*
X110763860Y-139624265D01*
X110643145Y-139850105D01*
X110568810Y-140095156D01*
X110550000Y-140286137D01*
X97975000Y-140286137D01*
X97975000Y-137567791D01*
X112400000Y-137567791D01*
X112400000Y-137932209D01*
X112471095Y-138289625D01*
X112610552Y-138626303D01*
X112813011Y-138929306D01*
X113070694Y-139186989D01*
X113373697Y-139389448D01*
X113710375Y-139528905D01*
X114067791Y-139600000D01*
X114432209Y-139600000D01*
X114789625Y-139528905D01*
X115126303Y-139389448D01*
X115429306Y-139186989D01*
X115686989Y-138929306D01*
X115889448Y-138626303D01*
X116028905Y-138289625D01*
X116100000Y-137932209D01*
X116100000Y-137567791D01*
X126400000Y-137567791D01*
X126400000Y-137932209D01*
X126471095Y-138289625D01*
X126610552Y-138626303D01*
X126813011Y-138929306D01*
X127070694Y-139186989D01*
X127373697Y-139389448D01*
X127710375Y-139528905D01*
X128067791Y-139600000D01*
X128432209Y-139600000D01*
X128789625Y-139528905D01*
X129126303Y-139389448D01*
X129429306Y-139186989D01*
X129686989Y-138929306D01*
X129889448Y-138626303D01*
X130028905Y-138289625D01*
X130100000Y-137932209D01*
X130100000Y-137567791D01*
X130028905Y-137210375D01*
X129889448Y-136873697D01*
X129686989Y-136570694D01*
X129429306Y-136313011D01*
X129126303Y-136110552D01*
X128789625Y-135971095D01*
X128432209Y-135900000D01*
X128067791Y-135900000D01*
X127710375Y-135971095D01*
X127373697Y-136110552D01*
X127070694Y-136313011D01*
X126813011Y-136570694D01*
X126610552Y-136873697D01*
X126471095Y-137210375D01*
X126400000Y-137567791D01*
X116100000Y-137567791D01*
X116028905Y-137210375D01*
X115889448Y-136873697D01*
X115686989Y-136570694D01*
X115429306Y-136313011D01*
X115126303Y-136110552D01*
X114789625Y-135971095D01*
X114432209Y-135900000D01*
X114067791Y-135900000D01*
X113710375Y-135971095D01*
X113373697Y-136110552D01*
X113070694Y-136313011D01*
X112813011Y-136570694D01*
X112610552Y-136873697D01*
X112471095Y-137210375D01*
X112400000Y-137567791D01*
X97975000Y-137567791D01*
X97975000Y-123671207D01*
X126700000Y-123671207D01*
X126700000Y-123828793D01*
X126730743Y-123983351D01*
X126791049Y-124128942D01*
X126878599Y-124259970D01*
X126990030Y-124371401D01*
X127121058Y-124458951D01*
X127266649Y-124519257D01*
X127421207Y-124550000D01*
X127578793Y-124550000D01*
X127733351Y-124519257D01*
X127878942Y-124458951D01*
X127892338Y-124450000D01*
X128920162Y-124450000D01*
X128933558Y-124458951D01*
X129079149Y-124519257D01*
X129233707Y-124550000D01*
X129391293Y-124550000D01*
X129545851Y-124519257D01*
X129691442Y-124458951D01*
X129822470Y-124371401D01*
X129933901Y-124259970D01*
X130021451Y-124128942D01*
X130081757Y-123983351D01*
X130112500Y-123828793D01*
X130112500Y-123671207D01*
X130081757Y-123516649D01*
X130021451Y-123371058D01*
X129933901Y-123240030D01*
X129822470Y-123128599D01*
X129691442Y-123041049D01*
X129545851Y-122980743D01*
X129391293Y-122950000D01*
X129233707Y-122950000D01*
X129079149Y-122980743D01*
X128933558Y-123041049D01*
X128920162Y-123050000D01*
X127892338Y-123050000D01*
X127878942Y-123041049D01*
X127733351Y-122980743D01*
X127578793Y-122950000D01*
X127421207Y-122950000D01*
X127266649Y-122980743D01*
X127121058Y-123041049D01*
X126990030Y-123128599D01*
X126878599Y-123240030D01*
X126791049Y-123371058D01*
X126730743Y-123516649D01*
X126700000Y-123671207D01*
X97975000Y-123671207D01*
X97975000Y-122421207D01*
X118650000Y-122421207D01*
X118650000Y-122578793D01*
X118680743Y-122733351D01*
X118741049Y-122878942D01*
X118828599Y-123009970D01*
X118940030Y-123121401D01*
X119071058Y-123208951D01*
X119216649Y-123269257D01*
X119371207Y-123300000D01*
X119528793Y-123300000D01*
X119683351Y-123269257D01*
X119828942Y-123208951D01*
X119842338Y-123200000D01*
X120857662Y-123200000D01*
X120871058Y-123208951D01*
X121016649Y-123269257D01*
X121171207Y-123300000D01*
X121328793Y-123300000D01*
X121483351Y-123269257D01*
X121628942Y-123208951D01*
X121759970Y-123121401D01*
X121871401Y-123009970D01*
X121958951Y-122878942D01*
X122019257Y-122733351D01*
X122050000Y-122578793D01*
X122050000Y-122421207D01*
X122019257Y-122266649D01*
X121958951Y-122121058D01*
X121871401Y-121990030D01*
X121759970Y-121878599D01*
X121628942Y-121791049D01*
X121483351Y-121730743D01*
X121328793Y-121700000D01*
X121171207Y-121700000D01*
X121016649Y-121730743D01*
X120871058Y-121791049D01*
X120857662Y-121800000D01*
X119842338Y-121800000D01*
X119828942Y-121791049D01*
X119683351Y-121730743D01*
X119528793Y-121700000D01*
X119371207Y-121700000D01*
X119216649Y-121730743D01*
X119071058Y-121791049D01*
X118940030Y-121878599D01*
X118828599Y-121990030D01*
X118741049Y-122121058D01*
X118680743Y-122266649D01*
X118650000Y-122421207D01*
X97975000Y-122421207D01*
X97975000Y-108042594D01*
X98164860Y-108326740D01*
X98673260Y-108835140D01*
X99271077Y-109234588D01*
X99935334Y-109509733D01*
X100640506Y-109650000D01*
X101359494Y-109650000D01*
X102064666Y-109509733D01*
X102728923Y-109234588D01*
X103326740Y-108835140D01*
X103835140Y-108326740D01*
X104234588Y-107728923D01*
X104509733Y-107064666D01*
X104650000Y-106359494D01*
X104650000Y-106107187D01*
X107050000Y-106107187D01*
X107050000Y-106392813D01*
X107105723Y-106672949D01*
X107215027Y-106936833D01*
X107373711Y-107174321D01*
X107575679Y-107376289D01*
X107813167Y-107534973D01*
X108077051Y-107644277D01*
X108357187Y-107700000D01*
X108642813Y-107700000D01*
X108922949Y-107644277D01*
X109186833Y-107534973D01*
X109424321Y-107376289D01*
X109626289Y-107174321D01*
X109784973Y-106936833D01*
X109894277Y-106672949D01*
X109950000Y-106392813D01*
X109950000Y-106107187D01*
X110550000Y-106107187D01*
X110550000Y-106392813D01*
X110605723Y-106672949D01*
X110715027Y-106936833D01*
X110873711Y-107174321D01*
X111075679Y-107376289D01*
X111313167Y-107534973D01*
X111577051Y-107644277D01*
X111857187Y-107700000D01*
X112142813Y-107700000D01*
X112422949Y-107644277D01*
X112686833Y-107534973D01*
X112924321Y-107376289D01*
X113031816Y-107268794D01*
X114622628Y-107268794D01*
X114726509Y-107484750D01*
X114982259Y-107611925D01*
X115257906Y-107686762D01*
X115542856Y-107706386D01*
X115826159Y-107670042D01*
X116096928Y-107579125D01*
X116273491Y-107484750D01*
X116377372Y-107268794D01*
X115500000Y-106391421D01*
X114622628Y-107268794D01*
X113031816Y-107268794D01*
X113126289Y-107174321D01*
X113284973Y-106936833D01*
X113394277Y-106672949D01*
X113450000Y-106392813D01*
X113450000Y-106292856D01*
X114043614Y-106292856D01*
X114079958Y-106576159D01*
X114170875Y-106846928D01*
X114265250Y-107023491D01*
X114481206Y-107127372D01*
X115358579Y-106250000D01*
X115641421Y-106250000D01*
X116518794Y-107127372D01*
X116734750Y-107023491D01*
X116861925Y-106767741D01*
X116936762Y-106492094D01*
X116956386Y-106207144D01*
X116943563Y-106107187D01*
X120050000Y-106107187D01*
X120050000Y-106392813D01*
X120105723Y-106672949D01*
X120215027Y-106936833D01*
X120373711Y-107174321D01*
X120575679Y-107376289D01*
X120813167Y-107534973D01*
X121077051Y-107644277D01*
X121357187Y-107700000D01*
X121642813Y-107700000D01*
X121922949Y-107644277D01*
X122186833Y-107534973D01*
X122424321Y-107376289D01*
X122531816Y-107268794D01*
X124122628Y-107268794D01*
X124226509Y-107484750D01*
X124482259Y-107611925D01*
X124757906Y-107686762D01*
X125042856Y-107706386D01*
X125326159Y-107670042D01*
X125596928Y-107579125D01*
X125773491Y-107484750D01*
X125877372Y-107268794D01*
X125000000Y-106391421D01*
X124122628Y-107268794D01*
X122531816Y-107268794D01*
X122626289Y-107174321D01*
X122784973Y-106936833D01*
X122894277Y-106672949D01*
X122950000Y-106392813D01*
X122950000Y-106292856D01*
X123543614Y-106292856D01*
X123579958Y-106576159D01*
X123670875Y-106846928D01*
X123765250Y-107023491D01*
X123981206Y-107127372D01*
X124858579Y-106250000D01*
X125141421Y-106250000D01*
X126018794Y-107127372D01*
X126234750Y-107023491D01*
X126361925Y-106767741D01*
X126436762Y-106492094D01*
X126456386Y-106207144D01*
X126443563Y-106107187D01*
X127050000Y-106107187D01*
X127050000Y-106392813D01*
X127105723Y-106672949D01*
X127215027Y-106936833D01*
X127373711Y-107174321D01*
X127575679Y-107376289D01*
X127813167Y-107534973D01*
X128077051Y-107644277D01*
X128357187Y-107700000D01*
X128642813Y-107700000D01*
X128922949Y-107644277D01*
X129186833Y-107534973D01*
X129424321Y-107376289D01*
X129531816Y-107268794D01*
X133622628Y-107268794D01*
X133726509Y-107484750D01*
X133982259Y-107611925D01*
X134257906Y-107686762D01*
X134542856Y-107706386D01*
X134826159Y-107670042D01*
X135096928Y-107579125D01*
X135273491Y-107484750D01*
X135377372Y-107268794D01*
X134500000Y-106391421D01*
X133622628Y-107268794D01*
X129531816Y-107268794D01*
X129626289Y-107174321D01*
X129784973Y-106936833D01*
X129894277Y-106672949D01*
X129950000Y-106392813D01*
X129950000Y-106292856D01*
X133043614Y-106292856D01*
X133079958Y-106576159D01*
X133170875Y-106846928D01*
X133265250Y-107023491D01*
X133481206Y-107127372D01*
X134358579Y-106250000D01*
X134641421Y-106250000D01*
X135518794Y-107127372D01*
X135734750Y-107023491D01*
X135861925Y-106767741D01*
X135936762Y-106492094D01*
X135956386Y-106207144D01*
X135943563Y-106107187D01*
X136550000Y-106107187D01*
X136550000Y-106392813D01*
X136605723Y-106672949D01*
X136715027Y-106936833D01*
X136873711Y-107174321D01*
X137075679Y-107376289D01*
X137313167Y-107534973D01*
X137577051Y-107644277D01*
X137857187Y-107700000D01*
X138142813Y-107700000D01*
X138422949Y-107644277D01*
X138686833Y-107534973D01*
X138924321Y-107376289D01*
X139126289Y-107174321D01*
X139284973Y-106936833D01*
X139394277Y-106672949D01*
X139450000Y-106392813D01*
X139450000Y-106107187D01*
X140050000Y-106107187D01*
X140050000Y-106392813D01*
X140105723Y-106672949D01*
X140215027Y-106936833D01*
X140373711Y-107174321D01*
X140575679Y-107376289D01*
X140813167Y-107534973D01*
X141077051Y-107644277D01*
X141357187Y-107700000D01*
X141642813Y-107700000D01*
X141922949Y-107644277D01*
X142186833Y-107534973D01*
X142424321Y-107376289D01*
X142626289Y-107174321D01*
X142784973Y-106936833D01*
X142894277Y-106672949D01*
X142950000Y-106392813D01*
X142950000Y-106107187D01*
X142894277Y-105827051D01*
X142784973Y-105563167D01*
X142626289Y-105325679D01*
X142424321Y-105123711D01*
X142186833Y-104965027D01*
X141922949Y-104855723D01*
X141642813Y-104800000D01*
X141357187Y-104800000D01*
X141077051Y-104855723D01*
X140813167Y-104965027D01*
X140575679Y-105123711D01*
X140373711Y-105325679D01*
X140215027Y-105563167D01*
X140105723Y-105827051D01*
X140050000Y-106107187D01*
X139450000Y-106107187D01*
X139394277Y-105827051D01*
X139284973Y-105563167D01*
X139126289Y-105325679D01*
X138924321Y-105123711D01*
X138686833Y-104965027D01*
X138422949Y-104855723D01*
X138142813Y-104800000D01*
X137857187Y-104800000D01*
X137577051Y-104855723D01*
X137313167Y-104965027D01*
X137075679Y-105123711D01*
X136873711Y-105325679D01*
X136715027Y-105563167D01*
X136605723Y-105827051D01*
X136550000Y-106107187D01*
X135943563Y-106107187D01*
X135920042Y-105923841D01*
X135829125Y-105653072D01*
X135734750Y-105476509D01*
X135518794Y-105372628D01*
X134641421Y-106250000D01*
X134358579Y-106250000D01*
X133481206Y-105372628D01*
X133265250Y-105476509D01*
X133138075Y-105732259D01*
X133063238Y-106007906D01*
X133043614Y-106292856D01*
X129950000Y-106292856D01*
X129950000Y-106107187D01*
X129894277Y-105827051D01*
X129784973Y-105563167D01*
X129626289Y-105325679D01*
X129531816Y-105231206D01*
X133622628Y-105231206D01*
X134500000Y-106108579D01*
X135377372Y-105231206D01*
X135273491Y-105015250D01*
X135017741Y-104888075D01*
X134742094Y-104813238D01*
X134457144Y-104793614D01*
X134173841Y-104829958D01*
X133903072Y-104920875D01*
X133726509Y-105015250D01*
X133622628Y-105231206D01*
X129531816Y-105231206D01*
X129424321Y-105123711D01*
X129186833Y-104965027D01*
X128922949Y-104855723D01*
X128642813Y-104800000D01*
X128357187Y-104800000D01*
X128077051Y-104855723D01*
X127813167Y-104965027D01*
X127575679Y-105123711D01*
X127373711Y-105325679D01*
X127215027Y-105563167D01*
X127105723Y-105827051D01*
X127050000Y-106107187D01*
X126443563Y-106107187D01*
X126420042Y-105923841D01*
X126329125Y-105653072D01*
X126234750Y-105476509D01*
X126018794Y-105372628D01*
X125141421Y-106250000D01*
X124858579Y-106250000D01*
X123981206Y-105372628D01*
X123765250Y-105476509D01*
X123638075Y-105732259D01*
X123563238Y-106007906D01*
X123543614Y-106292856D01*
X122950000Y-106292856D01*
X122950000Y-106107187D01*
X122894277Y-105827051D01*
X122784973Y-105563167D01*
X122626289Y-105325679D01*
X122531816Y-105231206D01*
X124122628Y-105231206D01*
X125000000Y-106108579D01*
X125877372Y-105231206D01*
X125773491Y-105015250D01*
X125517741Y-104888075D01*
X125242094Y-104813238D01*
X124957144Y-104793614D01*
X124673841Y-104829958D01*
X124403072Y-104920875D01*
X124226509Y-105015250D01*
X124122628Y-105231206D01*
X122531816Y-105231206D01*
X122424321Y-105123711D01*
X122186833Y-104965027D01*
X121922949Y-104855723D01*
X121642813Y-104800000D01*
X121357187Y-104800000D01*
X121077051Y-104855723D01*
X120813167Y-104965027D01*
X120575679Y-105123711D01*
X120373711Y-105325679D01*
X120215027Y-105563167D01*
X120105723Y-105827051D01*
X120050000Y-106107187D01*
X116943563Y-106107187D01*
X116920042Y-105923841D01*
X116829125Y-105653072D01*
X116734750Y-105476509D01*
X116518794Y-105372628D01*
X115641421Y-106250000D01*
X115358579Y-106250000D01*
X114481206Y-105372628D01*
X114265250Y-105476509D01*
X114138075Y-105732259D01*
X114063238Y-106007906D01*
X114043614Y-106292856D01*
X113450000Y-106292856D01*
X113450000Y-106107187D01*
X113394277Y-105827051D01*
X113284973Y-105563167D01*
X113126289Y-105325679D01*
X113031816Y-105231206D01*
X114622628Y-105231206D01*
X115500000Y-106108579D01*
X116377372Y-105231206D01*
X116273491Y-105015250D01*
X116017741Y-104888075D01*
X115742094Y-104813238D01*
X115457144Y-104793614D01*
X115173841Y-104829958D01*
X114903072Y-104920875D01*
X114726509Y-105015250D01*
X114622628Y-105231206D01*
X113031816Y-105231206D01*
X112924321Y-105123711D01*
X112686833Y-104965027D01*
X112422949Y-104855723D01*
X112142813Y-104800000D01*
X111857187Y-104800000D01*
X111577051Y-104855723D01*
X111313167Y-104965027D01*
X111075679Y-105123711D01*
X110873711Y-105325679D01*
X110715027Y-105563167D01*
X110605723Y-105827051D01*
X110550000Y-106107187D01*
X109950000Y-106107187D01*
X109894277Y-105827051D01*
X109784973Y-105563167D01*
X109626289Y-105325679D01*
X109424321Y-105123711D01*
X109186833Y-104965027D01*
X108922949Y-104855723D01*
X108642813Y-104800000D01*
X108357187Y-104800000D01*
X108077051Y-104855723D01*
X107813167Y-104965027D01*
X107575679Y-105123711D01*
X107373711Y-105325679D01*
X107215027Y-105563167D01*
X107105723Y-105827051D01*
X107050000Y-106107187D01*
X104650000Y-106107187D01*
X104650000Y-105640506D01*
X104509733Y-104935334D01*
X104234588Y-104271077D01*
X103835140Y-103673260D01*
X103326740Y-103164860D01*
X103042594Y-102975000D01*
X146957406Y-102975000D01*
X146673260Y-103164860D01*
%TD*%
M02*
