%TF.GenerationSoftware,KiCad,Pcbnew,(5.1.6-0)*%
%TF.CreationDate,2023-06-01T15:27:15-07:00*%
%TF.ProjectId,input_buffer_RCA,696e7075-745f-4627-9566-6665725f5243,rev?*%
%TF.SameCoordinates,Original*%
%TF.FileFunction,Soldermask,Top*%
%TF.FilePolarity,Negative*%
%FSLAX46Y46*%
G04 Gerber Fmt 4.6, Leading zero omitted, Abs format (unit mm)*
G04 Created by KiCad (PCBNEW (5.1.6-0)) date 2023-06-01 15:27:15*
%MOMM*%
%LPD*%
G01*
G04 APERTURE LIST*
%ADD10C,2.100000*%
%ADD11R,1.200000X1.200000*%
%ADD12C,0.900000*%
%ADD13C,6.500000*%
%ADD14O,1.600000X4.100000*%
%ADD15O,1.800000X4.100000*%
%ADD16C,3.300000*%
%ADD17C,2.900000*%
G04 APERTURE END LIST*
D10*
%TO.C,J4*%
X123250000Y-106250000D03*
X126750000Y-106250000D03*
%TD*%
D11*
%TO.C,D2*%
X137500000Y-128650000D03*
X137500000Y-125850000D03*
%TD*%
%TO.C,D1*%
X112250000Y-128650000D03*
X112250000Y-125850000D03*
%TD*%
D12*
%TO.C,H4*%
X150697056Y-137052944D03*
X149000000Y-136350000D03*
X147302944Y-137052944D03*
X146600000Y-138750000D03*
X147302944Y-140447056D03*
X149000000Y-141150000D03*
X150697056Y-140447056D03*
X151400000Y-138750000D03*
D13*
X149000000Y-138750000D03*
%TD*%
D12*
%TO.C,H3*%
X150697056Y-104302944D03*
X149000000Y-103600000D03*
X147302944Y-104302944D03*
X146600000Y-106000000D03*
X147302944Y-107697056D03*
X149000000Y-108400000D03*
X150697056Y-107697056D03*
X151400000Y-106000000D03*
D13*
X149000000Y-106000000D03*
%TD*%
D12*
%TO.C,H2*%
X102697056Y-137052944D03*
X101000000Y-136350000D03*
X99302944Y-137052944D03*
X98600000Y-138750000D03*
X99302944Y-140447056D03*
X101000000Y-141150000D03*
X102697056Y-140447056D03*
X103400000Y-138750000D03*
D13*
X101000000Y-138750000D03*
%TD*%
D12*
%TO.C,H1*%
X102697056Y-104302944D03*
X101000000Y-103600000D03*
X99302944Y-104302944D03*
X98600000Y-106000000D03*
X99302944Y-107697056D03*
X101000000Y-108400000D03*
X102697056Y-107697056D03*
X103400000Y-106000000D03*
D13*
X101000000Y-106000000D03*
%TD*%
D14*
%TO.C,J1*%
X138250000Y-136500000D03*
D15*
X111850000Y-136500000D03*
D16*
X114250000Y-140000000D03*
D17*
X128250000Y-132750000D03*
D16*
X128250000Y-140000000D03*
D17*
X114250000Y-132750000D03*
%TD*%
%TO.C,U3*%
G36*
G01*
X141200000Y-116520000D02*
X141200000Y-116170000D01*
G75*
G02*
X141375000Y-115995000I175000J0D01*
G01*
X143075000Y-115995000D01*
G75*
G02*
X143250000Y-116170000I0J-175000D01*
G01*
X143250000Y-116520000D01*
G75*
G02*
X143075000Y-116695000I-175000J0D01*
G01*
X141375000Y-116695000D01*
G75*
G02*
X141200000Y-116520000I0J175000D01*
G01*
G37*
G36*
G01*
X141200000Y-117790000D02*
X141200000Y-117440000D01*
G75*
G02*
X141375000Y-117265000I175000J0D01*
G01*
X143075000Y-117265000D01*
G75*
G02*
X143250000Y-117440000I0J-175000D01*
G01*
X143250000Y-117790000D01*
G75*
G02*
X143075000Y-117965000I-175000J0D01*
G01*
X141375000Y-117965000D01*
G75*
G02*
X141200000Y-117790000I0J175000D01*
G01*
G37*
G36*
G01*
X141200000Y-119060000D02*
X141200000Y-118710000D01*
G75*
G02*
X141375000Y-118535000I175000J0D01*
G01*
X143075000Y-118535000D01*
G75*
G02*
X143250000Y-118710000I0J-175000D01*
G01*
X143250000Y-119060000D01*
G75*
G02*
X143075000Y-119235000I-175000J0D01*
G01*
X141375000Y-119235000D01*
G75*
G02*
X141200000Y-119060000I0J175000D01*
G01*
G37*
G36*
G01*
X141200000Y-120330000D02*
X141200000Y-119980000D01*
G75*
G02*
X141375000Y-119805000I175000J0D01*
G01*
X143075000Y-119805000D01*
G75*
G02*
X143250000Y-119980000I0J-175000D01*
G01*
X143250000Y-120330000D01*
G75*
G02*
X143075000Y-120505000I-175000J0D01*
G01*
X141375000Y-120505000D01*
G75*
G02*
X141200000Y-120330000I0J175000D01*
G01*
G37*
G36*
G01*
X136250000Y-120330000D02*
X136250000Y-119980000D01*
G75*
G02*
X136425000Y-119805000I175000J0D01*
G01*
X138125000Y-119805000D01*
G75*
G02*
X138300000Y-119980000I0J-175000D01*
G01*
X138300000Y-120330000D01*
G75*
G02*
X138125000Y-120505000I-175000J0D01*
G01*
X136425000Y-120505000D01*
G75*
G02*
X136250000Y-120330000I0J175000D01*
G01*
G37*
G36*
G01*
X136250000Y-119060000D02*
X136250000Y-118710000D01*
G75*
G02*
X136425000Y-118535000I175000J0D01*
G01*
X138125000Y-118535000D01*
G75*
G02*
X138300000Y-118710000I0J-175000D01*
G01*
X138300000Y-119060000D01*
G75*
G02*
X138125000Y-119235000I-175000J0D01*
G01*
X136425000Y-119235000D01*
G75*
G02*
X136250000Y-119060000I0J175000D01*
G01*
G37*
G36*
G01*
X136250000Y-117790000D02*
X136250000Y-117440000D01*
G75*
G02*
X136425000Y-117265000I175000J0D01*
G01*
X138125000Y-117265000D01*
G75*
G02*
X138300000Y-117440000I0J-175000D01*
G01*
X138300000Y-117790000D01*
G75*
G02*
X138125000Y-117965000I-175000J0D01*
G01*
X136425000Y-117965000D01*
G75*
G02*
X136250000Y-117790000I0J175000D01*
G01*
G37*
G36*
G01*
X136250000Y-116520000D02*
X136250000Y-116170000D01*
G75*
G02*
X136425000Y-115995000I175000J0D01*
G01*
X138125000Y-115995000D01*
G75*
G02*
X138300000Y-116170000I0J-175000D01*
G01*
X138300000Y-116520000D01*
G75*
G02*
X138125000Y-116695000I-175000J0D01*
G01*
X136425000Y-116695000D01*
G75*
G02*
X136250000Y-116520000I0J175000D01*
G01*
G37*
%TD*%
%TO.C,U2*%
G36*
G01*
X111450000Y-116520000D02*
X111450000Y-116170000D01*
G75*
G02*
X111625000Y-115995000I175000J0D01*
G01*
X113325000Y-115995000D01*
G75*
G02*
X113500000Y-116170000I0J-175000D01*
G01*
X113500000Y-116520000D01*
G75*
G02*
X113325000Y-116695000I-175000J0D01*
G01*
X111625000Y-116695000D01*
G75*
G02*
X111450000Y-116520000I0J175000D01*
G01*
G37*
G36*
G01*
X111450000Y-117790000D02*
X111450000Y-117440000D01*
G75*
G02*
X111625000Y-117265000I175000J0D01*
G01*
X113325000Y-117265000D01*
G75*
G02*
X113500000Y-117440000I0J-175000D01*
G01*
X113500000Y-117790000D01*
G75*
G02*
X113325000Y-117965000I-175000J0D01*
G01*
X111625000Y-117965000D01*
G75*
G02*
X111450000Y-117790000I0J175000D01*
G01*
G37*
G36*
G01*
X111450000Y-119060000D02*
X111450000Y-118710000D01*
G75*
G02*
X111625000Y-118535000I175000J0D01*
G01*
X113325000Y-118535000D01*
G75*
G02*
X113500000Y-118710000I0J-175000D01*
G01*
X113500000Y-119060000D01*
G75*
G02*
X113325000Y-119235000I-175000J0D01*
G01*
X111625000Y-119235000D01*
G75*
G02*
X111450000Y-119060000I0J175000D01*
G01*
G37*
G36*
G01*
X111450000Y-120330000D02*
X111450000Y-119980000D01*
G75*
G02*
X111625000Y-119805000I175000J0D01*
G01*
X113325000Y-119805000D01*
G75*
G02*
X113500000Y-119980000I0J-175000D01*
G01*
X113500000Y-120330000D01*
G75*
G02*
X113325000Y-120505000I-175000J0D01*
G01*
X111625000Y-120505000D01*
G75*
G02*
X111450000Y-120330000I0J175000D01*
G01*
G37*
G36*
G01*
X106500000Y-120330000D02*
X106500000Y-119980000D01*
G75*
G02*
X106675000Y-119805000I175000J0D01*
G01*
X108375000Y-119805000D01*
G75*
G02*
X108550000Y-119980000I0J-175000D01*
G01*
X108550000Y-120330000D01*
G75*
G02*
X108375000Y-120505000I-175000J0D01*
G01*
X106675000Y-120505000D01*
G75*
G02*
X106500000Y-120330000I0J175000D01*
G01*
G37*
G36*
G01*
X106500000Y-119060000D02*
X106500000Y-118710000D01*
G75*
G02*
X106675000Y-118535000I175000J0D01*
G01*
X108375000Y-118535000D01*
G75*
G02*
X108550000Y-118710000I0J-175000D01*
G01*
X108550000Y-119060000D01*
G75*
G02*
X108375000Y-119235000I-175000J0D01*
G01*
X106675000Y-119235000D01*
G75*
G02*
X106500000Y-119060000I0J175000D01*
G01*
G37*
G36*
G01*
X106500000Y-117790000D02*
X106500000Y-117440000D01*
G75*
G02*
X106675000Y-117265000I175000J0D01*
G01*
X108375000Y-117265000D01*
G75*
G02*
X108550000Y-117440000I0J-175000D01*
G01*
X108550000Y-117790000D01*
G75*
G02*
X108375000Y-117965000I-175000J0D01*
G01*
X106675000Y-117965000D01*
G75*
G02*
X106500000Y-117790000I0J175000D01*
G01*
G37*
G36*
G01*
X106500000Y-116520000D02*
X106500000Y-116170000D01*
G75*
G02*
X106675000Y-115995000I175000J0D01*
G01*
X108375000Y-115995000D01*
G75*
G02*
X108550000Y-116170000I0J-175000D01*
G01*
X108550000Y-116520000D01*
G75*
G02*
X108375000Y-116695000I-175000J0D01*
G01*
X106675000Y-116695000D01*
G75*
G02*
X106500000Y-116520000I0J175000D01*
G01*
G37*
%TD*%
%TO.C,U1*%
G36*
G01*
X126450000Y-116520000D02*
X126450000Y-116170000D01*
G75*
G02*
X126625000Y-115995000I175000J0D01*
G01*
X128325000Y-115995000D01*
G75*
G02*
X128500000Y-116170000I0J-175000D01*
G01*
X128500000Y-116520000D01*
G75*
G02*
X128325000Y-116695000I-175000J0D01*
G01*
X126625000Y-116695000D01*
G75*
G02*
X126450000Y-116520000I0J175000D01*
G01*
G37*
G36*
G01*
X126450000Y-117790000D02*
X126450000Y-117440000D01*
G75*
G02*
X126625000Y-117265000I175000J0D01*
G01*
X128325000Y-117265000D01*
G75*
G02*
X128500000Y-117440000I0J-175000D01*
G01*
X128500000Y-117790000D01*
G75*
G02*
X128325000Y-117965000I-175000J0D01*
G01*
X126625000Y-117965000D01*
G75*
G02*
X126450000Y-117790000I0J175000D01*
G01*
G37*
G36*
G01*
X126450000Y-119060000D02*
X126450000Y-118710000D01*
G75*
G02*
X126625000Y-118535000I175000J0D01*
G01*
X128325000Y-118535000D01*
G75*
G02*
X128500000Y-118710000I0J-175000D01*
G01*
X128500000Y-119060000D01*
G75*
G02*
X128325000Y-119235000I-175000J0D01*
G01*
X126625000Y-119235000D01*
G75*
G02*
X126450000Y-119060000I0J175000D01*
G01*
G37*
G36*
G01*
X126450000Y-120330000D02*
X126450000Y-119980000D01*
G75*
G02*
X126625000Y-119805000I175000J0D01*
G01*
X128325000Y-119805000D01*
G75*
G02*
X128500000Y-119980000I0J-175000D01*
G01*
X128500000Y-120330000D01*
G75*
G02*
X128325000Y-120505000I-175000J0D01*
G01*
X126625000Y-120505000D01*
G75*
G02*
X126450000Y-120330000I0J175000D01*
G01*
G37*
G36*
G01*
X121500000Y-120330000D02*
X121500000Y-119980000D01*
G75*
G02*
X121675000Y-119805000I175000J0D01*
G01*
X123375000Y-119805000D01*
G75*
G02*
X123550000Y-119980000I0J-175000D01*
G01*
X123550000Y-120330000D01*
G75*
G02*
X123375000Y-120505000I-175000J0D01*
G01*
X121675000Y-120505000D01*
G75*
G02*
X121500000Y-120330000I0J175000D01*
G01*
G37*
G36*
G01*
X121500000Y-119060000D02*
X121500000Y-118710000D01*
G75*
G02*
X121675000Y-118535000I175000J0D01*
G01*
X123375000Y-118535000D01*
G75*
G02*
X123550000Y-118710000I0J-175000D01*
G01*
X123550000Y-119060000D01*
G75*
G02*
X123375000Y-119235000I-175000J0D01*
G01*
X121675000Y-119235000D01*
G75*
G02*
X121500000Y-119060000I0J175000D01*
G01*
G37*
G36*
G01*
X121500000Y-117790000D02*
X121500000Y-117440000D01*
G75*
G02*
X121675000Y-117265000I175000J0D01*
G01*
X123375000Y-117265000D01*
G75*
G02*
X123550000Y-117440000I0J-175000D01*
G01*
X123550000Y-117790000D01*
G75*
G02*
X123375000Y-117965000I-175000J0D01*
G01*
X121675000Y-117965000D01*
G75*
G02*
X121500000Y-117790000I0J175000D01*
G01*
G37*
G36*
G01*
X121500000Y-116520000D02*
X121500000Y-116170000D01*
G75*
G02*
X121675000Y-115995000I175000J0D01*
G01*
X123375000Y-115995000D01*
G75*
G02*
X123550000Y-116170000I0J-175000D01*
G01*
X123550000Y-116520000D01*
G75*
G02*
X123375000Y-116695000I-175000J0D01*
G01*
X121675000Y-116695000D01*
G75*
G02*
X121500000Y-116520000I0J175000D01*
G01*
G37*
%TD*%
%TO.C,R14*%
G36*
G01*
X147592544Y-115975000D02*
X148907456Y-115975000D01*
G75*
G02*
X149175000Y-116242544I0J-267544D01*
G01*
X149175000Y-117232456D01*
G75*
G02*
X148907456Y-117500000I-267544J0D01*
G01*
X147592544Y-117500000D01*
G75*
G02*
X147325000Y-117232456I0J267544D01*
G01*
X147325000Y-116242544D01*
G75*
G02*
X147592544Y-115975000I267544J0D01*
G01*
G37*
G36*
G01*
X147592544Y-113000000D02*
X148907456Y-113000000D01*
G75*
G02*
X149175000Y-113267544I0J-267544D01*
G01*
X149175000Y-114257456D01*
G75*
G02*
X148907456Y-114525000I-267544J0D01*
G01*
X147592544Y-114525000D01*
G75*
G02*
X147325000Y-114257456I0J267544D01*
G01*
X147325000Y-113267544D01*
G75*
G02*
X147592544Y-113000000I267544J0D01*
G01*
G37*
%TD*%
%TO.C,R13*%
G36*
G01*
X133342544Y-115975000D02*
X134657456Y-115975000D01*
G75*
G02*
X134925000Y-116242544I0J-267544D01*
G01*
X134925000Y-117232456D01*
G75*
G02*
X134657456Y-117500000I-267544J0D01*
G01*
X133342544Y-117500000D01*
G75*
G02*
X133075000Y-117232456I0J267544D01*
G01*
X133075000Y-116242544D01*
G75*
G02*
X133342544Y-115975000I267544J0D01*
G01*
G37*
G36*
G01*
X133342544Y-113000000D02*
X134657456Y-113000000D01*
G75*
G02*
X134925000Y-113267544I0J-267544D01*
G01*
X134925000Y-114257456D01*
G75*
G02*
X134657456Y-114525000I-267544J0D01*
G01*
X133342544Y-114525000D01*
G75*
G02*
X133075000Y-114257456I0J267544D01*
G01*
X133075000Y-113267544D01*
G75*
G02*
X133342544Y-113000000I267544J0D01*
G01*
G37*
%TD*%
%TO.C,R12*%
G36*
G01*
X115092544Y-115975000D02*
X116407456Y-115975000D01*
G75*
G02*
X116675000Y-116242544I0J-267544D01*
G01*
X116675000Y-117232456D01*
G75*
G02*
X116407456Y-117500000I-267544J0D01*
G01*
X115092544Y-117500000D01*
G75*
G02*
X114825000Y-117232456I0J267544D01*
G01*
X114825000Y-116242544D01*
G75*
G02*
X115092544Y-115975000I267544J0D01*
G01*
G37*
G36*
G01*
X115092544Y-113000000D02*
X116407456Y-113000000D01*
G75*
G02*
X116675000Y-113267544I0J-267544D01*
G01*
X116675000Y-114257456D01*
G75*
G02*
X116407456Y-114525000I-267544J0D01*
G01*
X115092544Y-114525000D01*
G75*
G02*
X114825000Y-114257456I0J267544D01*
G01*
X114825000Y-113267544D01*
G75*
G02*
X115092544Y-113000000I267544J0D01*
G01*
G37*
%TD*%
%TO.C,R11*%
G36*
G01*
X100842544Y-115975000D02*
X102157456Y-115975000D01*
G75*
G02*
X102425000Y-116242544I0J-267544D01*
G01*
X102425000Y-117232456D01*
G75*
G02*
X102157456Y-117500000I-267544J0D01*
G01*
X100842544Y-117500000D01*
G75*
G02*
X100575000Y-117232456I0J267544D01*
G01*
X100575000Y-116242544D01*
G75*
G02*
X100842544Y-115975000I267544J0D01*
G01*
G37*
G36*
G01*
X100842544Y-113000000D02*
X102157456Y-113000000D01*
G75*
G02*
X102425000Y-113267544I0J-267544D01*
G01*
X102425000Y-114257456D01*
G75*
G02*
X102157456Y-114525000I-267544J0D01*
G01*
X100842544Y-114525000D01*
G75*
G02*
X100575000Y-114257456I0J267544D01*
G01*
X100575000Y-113267544D01*
G75*
G02*
X100842544Y-113000000I267544J0D01*
G01*
G37*
%TD*%
%TO.C,R10*%
G36*
G01*
X144842544Y-115975000D02*
X146157456Y-115975000D01*
G75*
G02*
X146425000Y-116242544I0J-267544D01*
G01*
X146425000Y-117232456D01*
G75*
G02*
X146157456Y-117500000I-267544J0D01*
G01*
X144842544Y-117500000D01*
G75*
G02*
X144575000Y-117232456I0J267544D01*
G01*
X144575000Y-116242544D01*
G75*
G02*
X144842544Y-115975000I267544J0D01*
G01*
G37*
G36*
G01*
X144842544Y-113000000D02*
X146157456Y-113000000D01*
G75*
G02*
X146425000Y-113267544I0J-267544D01*
G01*
X146425000Y-114257456D01*
G75*
G02*
X146157456Y-114525000I-267544J0D01*
G01*
X144842544Y-114525000D01*
G75*
G02*
X144575000Y-114257456I0J267544D01*
G01*
X144575000Y-113267544D01*
G75*
G02*
X144842544Y-113000000I267544J0D01*
G01*
G37*
%TD*%
%TO.C,R9*%
G36*
G01*
X103592544Y-115975000D02*
X104907456Y-115975000D01*
G75*
G02*
X105175000Y-116242544I0J-267544D01*
G01*
X105175000Y-117232456D01*
G75*
G02*
X104907456Y-117500000I-267544J0D01*
G01*
X103592544Y-117500000D01*
G75*
G02*
X103325000Y-117232456I0J267544D01*
G01*
X103325000Y-116242544D01*
G75*
G02*
X103592544Y-115975000I267544J0D01*
G01*
G37*
G36*
G01*
X103592544Y-113000000D02*
X104907456Y-113000000D01*
G75*
G02*
X105175000Y-113267544I0J-267544D01*
G01*
X105175000Y-114257456D01*
G75*
G02*
X104907456Y-114525000I-267544J0D01*
G01*
X103592544Y-114525000D01*
G75*
G02*
X103325000Y-114257456I0J267544D01*
G01*
X103325000Y-113267544D01*
G75*
G02*
X103592544Y-113000000I267544J0D01*
G01*
G37*
%TD*%
%TO.C,R8*%
G36*
G01*
X146157456Y-120525000D02*
X144842544Y-120525000D01*
G75*
G02*
X144575000Y-120257456I0J267544D01*
G01*
X144575000Y-119267544D01*
G75*
G02*
X144842544Y-119000000I267544J0D01*
G01*
X146157456Y-119000000D01*
G75*
G02*
X146425000Y-119267544I0J-267544D01*
G01*
X146425000Y-120257456D01*
G75*
G02*
X146157456Y-120525000I-267544J0D01*
G01*
G37*
G36*
G01*
X146157456Y-123500000D02*
X144842544Y-123500000D01*
G75*
G02*
X144575000Y-123232456I0J267544D01*
G01*
X144575000Y-122242544D01*
G75*
G02*
X144842544Y-121975000I267544J0D01*
G01*
X146157456Y-121975000D01*
G75*
G02*
X146425000Y-122242544I0J-267544D01*
G01*
X146425000Y-123232456D01*
G75*
G02*
X146157456Y-123500000I-267544J0D01*
G01*
G37*
%TD*%
%TO.C,R7*%
G36*
G01*
X104907456Y-120525000D02*
X103592544Y-120525000D01*
G75*
G02*
X103325000Y-120257456I0J267544D01*
G01*
X103325000Y-119267544D01*
G75*
G02*
X103592544Y-119000000I267544J0D01*
G01*
X104907456Y-119000000D01*
G75*
G02*
X105175000Y-119267544I0J-267544D01*
G01*
X105175000Y-120257456D01*
G75*
G02*
X104907456Y-120525000I-267544J0D01*
G01*
G37*
G36*
G01*
X104907456Y-123500000D02*
X103592544Y-123500000D01*
G75*
G02*
X103325000Y-123232456I0J267544D01*
G01*
X103325000Y-122242544D01*
G75*
G02*
X103592544Y-121975000I267544J0D01*
G01*
X104907456Y-121975000D01*
G75*
G02*
X105175000Y-122242544I0J-267544D01*
G01*
X105175000Y-123232456D01*
G75*
G02*
X104907456Y-123500000I-267544J0D01*
G01*
G37*
%TD*%
%TO.C,R6*%
G36*
G01*
X130092544Y-116975000D02*
X131407456Y-116975000D01*
G75*
G02*
X131675000Y-117242544I0J-267544D01*
G01*
X131675000Y-118232456D01*
G75*
G02*
X131407456Y-118500000I-267544J0D01*
G01*
X130092544Y-118500000D01*
G75*
G02*
X129825000Y-118232456I0J267544D01*
G01*
X129825000Y-117242544D01*
G75*
G02*
X130092544Y-116975000I267544J0D01*
G01*
G37*
G36*
G01*
X130092544Y-114000000D02*
X131407456Y-114000000D01*
G75*
G02*
X131675000Y-114267544I0J-267544D01*
G01*
X131675000Y-115257456D01*
G75*
G02*
X131407456Y-115525000I-267544J0D01*
G01*
X130092544Y-115525000D01*
G75*
G02*
X129825000Y-115257456I0J267544D01*
G01*
X129825000Y-114267544D01*
G75*
G02*
X130092544Y-114000000I267544J0D01*
G01*
G37*
%TD*%
%TO.C,R5*%
G36*
G01*
X119657456Y-118275000D02*
X118342544Y-118275000D01*
G75*
G02*
X118075000Y-118007456I0J267544D01*
G01*
X118075000Y-117017544D01*
G75*
G02*
X118342544Y-116750000I267544J0D01*
G01*
X119657456Y-116750000D01*
G75*
G02*
X119925000Y-117017544I0J-267544D01*
G01*
X119925000Y-118007456D01*
G75*
G02*
X119657456Y-118275000I-267544J0D01*
G01*
G37*
G36*
G01*
X119657456Y-121250000D02*
X118342544Y-121250000D01*
G75*
G02*
X118075000Y-120982456I0J267544D01*
G01*
X118075000Y-119992544D01*
G75*
G02*
X118342544Y-119725000I267544J0D01*
G01*
X119657456Y-119725000D01*
G75*
G02*
X119925000Y-119992544I0J-267544D01*
G01*
X119925000Y-120982456D01*
G75*
G02*
X119657456Y-121250000I-267544J0D01*
G01*
G37*
%TD*%
%TO.C,R4*%
G36*
G01*
X129907456Y-126525000D02*
X128592544Y-126525000D01*
G75*
G02*
X128325000Y-126257456I0J267544D01*
G01*
X128325000Y-125267544D01*
G75*
G02*
X128592544Y-125000000I267544J0D01*
G01*
X129907456Y-125000000D01*
G75*
G02*
X130175000Y-125267544I0J-267544D01*
G01*
X130175000Y-126257456D01*
G75*
G02*
X129907456Y-126525000I-267544J0D01*
G01*
G37*
G36*
G01*
X129907456Y-129500000D02*
X128592544Y-129500000D01*
G75*
G02*
X128325000Y-129232456I0J267544D01*
G01*
X128325000Y-128242544D01*
G75*
G02*
X128592544Y-127975000I267544J0D01*
G01*
X129907456Y-127975000D01*
G75*
G02*
X130175000Y-128242544I0J-267544D01*
G01*
X130175000Y-129232456D01*
G75*
G02*
X129907456Y-129500000I-267544J0D01*
G01*
G37*
%TD*%
%TO.C,R3*%
G36*
G01*
X121157456Y-126525000D02*
X119842544Y-126525000D01*
G75*
G02*
X119575000Y-126257456I0J267544D01*
G01*
X119575000Y-125267544D01*
G75*
G02*
X119842544Y-125000000I267544J0D01*
G01*
X121157456Y-125000000D01*
G75*
G02*
X121425000Y-125267544I0J-267544D01*
G01*
X121425000Y-126257456D01*
G75*
G02*
X121157456Y-126525000I-267544J0D01*
G01*
G37*
G36*
G01*
X121157456Y-129500000D02*
X119842544Y-129500000D01*
G75*
G02*
X119575000Y-129232456I0J267544D01*
G01*
X119575000Y-128242544D01*
G75*
G02*
X119842544Y-127975000I267544J0D01*
G01*
X121157456Y-127975000D01*
G75*
G02*
X121425000Y-128242544I0J-267544D01*
G01*
X121425000Y-129232456D01*
G75*
G02*
X121157456Y-129500000I-267544J0D01*
G01*
G37*
%TD*%
%TO.C,R2*%
G36*
G01*
X134092544Y-127975000D02*
X135407456Y-127975000D01*
G75*
G02*
X135675000Y-128242544I0J-267544D01*
G01*
X135675000Y-129232456D01*
G75*
G02*
X135407456Y-129500000I-267544J0D01*
G01*
X134092544Y-129500000D01*
G75*
G02*
X133825000Y-129232456I0J267544D01*
G01*
X133825000Y-128242544D01*
G75*
G02*
X134092544Y-127975000I267544J0D01*
G01*
G37*
G36*
G01*
X134092544Y-125000000D02*
X135407456Y-125000000D01*
G75*
G02*
X135675000Y-125267544I0J-267544D01*
G01*
X135675000Y-126257456D01*
G75*
G02*
X135407456Y-126525000I-267544J0D01*
G01*
X134092544Y-126525000D01*
G75*
G02*
X133825000Y-126257456I0J267544D01*
G01*
X133825000Y-125267544D01*
G75*
G02*
X134092544Y-125000000I267544J0D01*
G01*
G37*
%TD*%
%TO.C,R1*%
G36*
G01*
X114342544Y-127975000D02*
X115657456Y-127975000D01*
G75*
G02*
X115925000Y-128242544I0J-267544D01*
G01*
X115925000Y-129232456D01*
G75*
G02*
X115657456Y-129500000I-267544J0D01*
G01*
X114342544Y-129500000D01*
G75*
G02*
X114075000Y-129232456I0J267544D01*
G01*
X114075000Y-128242544D01*
G75*
G02*
X114342544Y-127975000I267544J0D01*
G01*
G37*
G36*
G01*
X114342544Y-125000000D02*
X115657456Y-125000000D01*
G75*
G02*
X115925000Y-125267544I0J-267544D01*
G01*
X115925000Y-126257456D01*
G75*
G02*
X115657456Y-126525000I-267544J0D01*
G01*
X114342544Y-126525000D01*
G75*
G02*
X114075000Y-126257456I0J267544D01*
G01*
X114075000Y-125267544D01*
G75*
G02*
X114342544Y-125000000I267544J0D01*
G01*
G37*
%TD*%
D10*
%TO.C,J3*%
X134500000Y-106250000D03*
X138000000Y-106250000D03*
X141500000Y-106250000D03*
%TD*%
%TO.C,J2*%
X108500000Y-106250000D03*
X112000000Y-106250000D03*
X115500000Y-106250000D03*
%TD*%
%TO.C,C8*%
G36*
G01*
X139475000Y-123157456D02*
X139475000Y-121842544D01*
G75*
G02*
X139742544Y-121575000I267544J0D01*
G01*
X140732456Y-121575000D01*
G75*
G02*
X141000000Y-121842544I0J-267544D01*
G01*
X141000000Y-123157456D01*
G75*
G02*
X140732456Y-123425000I-267544J0D01*
G01*
X139742544Y-123425000D01*
G75*
G02*
X139475000Y-123157456I0J267544D01*
G01*
G37*
G36*
G01*
X136500000Y-123157456D02*
X136500000Y-121842544D01*
G75*
G02*
X136767544Y-121575000I267544J0D01*
G01*
X137757456Y-121575000D01*
G75*
G02*
X138025000Y-121842544I0J-267544D01*
G01*
X138025000Y-123157456D01*
G75*
G02*
X137757456Y-123425000I-267544J0D01*
G01*
X136767544Y-123425000D01*
G75*
G02*
X136500000Y-123157456I0J267544D01*
G01*
G37*
%TD*%
%TO.C,C7*%
G36*
G01*
X109725000Y-123157456D02*
X109725000Y-121842544D01*
G75*
G02*
X109992544Y-121575000I267544J0D01*
G01*
X110982456Y-121575000D01*
G75*
G02*
X111250000Y-121842544I0J-267544D01*
G01*
X111250000Y-123157456D01*
G75*
G02*
X110982456Y-123425000I-267544J0D01*
G01*
X109992544Y-123425000D01*
G75*
G02*
X109725000Y-123157456I0J267544D01*
G01*
G37*
G36*
G01*
X106750000Y-123157456D02*
X106750000Y-121842544D01*
G75*
G02*
X107017544Y-121575000I267544J0D01*
G01*
X108007456Y-121575000D01*
G75*
G02*
X108275000Y-121842544I0J-267544D01*
G01*
X108275000Y-123157456D01*
G75*
G02*
X108007456Y-123425000I-267544J0D01*
G01*
X107017544Y-123425000D01*
G75*
G02*
X106750000Y-123157456I0J267544D01*
G01*
G37*
%TD*%
%TO.C,C6*%
G36*
G01*
X124975000Y-123157456D02*
X124975000Y-121842544D01*
G75*
G02*
X125242544Y-121575000I267544J0D01*
G01*
X126232456Y-121575000D01*
G75*
G02*
X126500000Y-121842544I0J-267544D01*
G01*
X126500000Y-123157456D01*
G75*
G02*
X126232456Y-123425000I-267544J0D01*
G01*
X125242544Y-123425000D01*
G75*
G02*
X124975000Y-123157456I0J267544D01*
G01*
G37*
G36*
G01*
X122000000Y-123157456D02*
X122000000Y-121842544D01*
G75*
G02*
X122267544Y-121575000I267544J0D01*
G01*
X123257456Y-121575000D01*
G75*
G02*
X123525000Y-121842544I0J-267544D01*
G01*
X123525000Y-123157456D01*
G75*
G02*
X123257456Y-123425000I-267544J0D01*
G01*
X122267544Y-123425000D01*
G75*
G02*
X122000000Y-123157456I0J267544D01*
G01*
G37*
%TD*%
%TO.C,C5*%
G36*
G01*
X111725000Y-114657456D02*
X111725000Y-113342544D01*
G75*
G02*
X111992544Y-113075000I267544J0D01*
G01*
X112982456Y-113075000D01*
G75*
G02*
X113250000Y-113342544I0J-267544D01*
G01*
X113250000Y-114657456D01*
G75*
G02*
X112982456Y-114925000I-267544J0D01*
G01*
X111992544Y-114925000D01*
G75*
G02*
X111725000Y-114657456I0J267544D01*
G01*
G37*
G36*
G01*
X108750000Y-114657456D02*
X108750000Y-113342544D01*
G75*
G02*
X109017544Y-113075000I267544J0D01*
G01*
X110007456Y-113075000D01*
G75*
G02*
X110275000Y-113342544I0J-267544D01*
G01*
X110275000Y-114657456D01*
G75*
G02*
X110007456Y-114925000I-267544J0D01*
G01*
X109017544Y-114925000D01*
G75*
G02*
X108750000Y-114657456I0J267544D01*
G01*
G37*
%TD*%
%TO.C,C4*%
G36*
G01*
X141475000Y-114657456D02*
X141475000Y-113342544D01*
G75*
G02*
X141742544Y-113075000I267544J0D01*
G01*
X142732456Y-113075000D01*
G75*
G02*
X143000000Y-113342544I0J-267544D01*
G01*
X143000000Y-114657456D01*
G75*
G02*
X142732456Y-114925000I-267544J0D01*
G01*
X141742544Y-114925000D01*
G75*
G02*
X141475000Y-114657456I0J267544D01*
G01*
G37*
G36*
G01*
X138500000Y-114657456D02*
X138500000Y-113342544D01*
G75*
G02*
X138767544Y-113075000I267544J0D01*
G01*
X139757456Y-113075000D01*
G75*
G02*
X140025000Y-113342544I0J-267544D01*
G01*
X140025000Y-114657456D01*
G75*
G02*
X139757456Y-114925000I-267544J0D01*
G01*
X138767544Y-114925000D01*
G75*
G02*
X138500000Y-114657456I0J267544D01*
G01*
G37*
%TD*%
%TO.C,C3*%
G36*
G01*
X126725000Y-114657456D02*
X126725000Y-113342544D01*
G75*
G02*
X126992544Y-113075000I267544J0D01*
G01*
X127982456Y-113075000D01*
G75*
G02*
X128250000Y-113342544I0J-267544D01*
G01*
X128250000Y-114657456D01*
G75*
G02*
X127982456Y-114925000I-267544J0D01*
G01*
X126992544Y-114925000D01*
G75*
G02*
X126725000Y-114657456I0J267544D01*
G01*
G37*
G36*
G01*
X123750000Y-114657456D02*
X123750000Y-113342544D01*
G75*
G02*
X124017544Y-113075000I267544J0D01*
G01*
X125007456Y-113075000D01*
G75*
G02*
X125275000Y-113342544I0J-267544D01*
G01*
X125275000Y-114657456D01*
G75*
G02*
X125007456Y-114925000I-267544J0D01*
G01*
X124017544Y-114925000D01*
G75*
G02*
X123750000Y-114657456I0J267544D01*
G01*
G37*
%TD*%
%TO.C,C2*%
G36*
G01*
X132657456Y-126525000D02*
X131342544Y-126525000D01*
G75*
G02*
X131075000Y-126257456I0J267544D01*
G01*
X131075000Y-125267544D01*
G75*
G02*
X131342544Y-125000000I267544J0D01*
G01*
X132657456Y-125000000D01*
G75*
G02*
X132925000Y-125267544I0J-267544D01*
G01*
X132925000Y-126257456D01*
G75*
G02*
X132657456Y-126525000I-267544J0D01*
G01*
G37*
G36*
G01*
X132657456Y-129500000D02*
X131342544Y-129500000D01*
G75*
G02*
X131075000Y-129232456I0J267544D01*
G01*
X131075000Y-128242544D01*
G75*
G02*
X131342544Y-127975000I267544J0D01*
G01*
X132657456Y-127975000D01*
G75*
G02*
X132925000Y-128242544I0J-267544D01*
G01*
X132925000Y-129232456D01*
G75*
G02*
X132657456Y-129500000I-267544J0D01*
G01*
G37*
%TD*%
%TO.C,C1*%
G36*
G01*
X118407456Y-126525000D02*
X117092544Y-126525000D01*
G75*
G02*
X116825000Y-126257456I0J267544D01*
G01*
X116825000Y-125267544D01*
G75*
G02*
X117092544Y-125000000I267544J0D01*
G01*
X118407456Y-125000000D01*
G75*
G02*
X118675000Y-125267544I0J-267544D01*
G01*
X118675000Y-126257456D01*
G75*
G02*
X118407456Y-126525000I-267544J0D01*
G01*
G37*
G36*
G01*
X118407456Y-129500000D02*
X117092544Y-129500000D01*
G75*
G02*
X116825000Y-129232456I0J267544D01*
G01*
X116825000Y-128242544D01*
G75*
G02*
X117092544Y-127975000I267544J0D01*
G01*
X118407456Y-127975000D01*
G75*
G02*
X118675000Y-128242544I0J-267544D01*
G01*
X118675000Y-129232456D01*
G75*
G02*
X118407456Y-129500000I-267544J0D01*
G01*
G37*
%TD*%
M02*
