M48
; DRILL file {KiCad (5.1.6-0)} date Thursday, May 11, 2023 at 04:08:52 PM
; FORMAT={-:-/ absolute / inch / decimal}
; #@! TF.CreationDate,2023-05-11T16:08:52-07:00
; #@! TF.GenerationSoftware,Kicad,Pcbnew,(5.1.6-0)
; #@! TF.FileFunction,Plated,1,2,PTH
FMAT,2
INCH
T1C0.0118
T2C0.0197
T3C0.0394
T4C0.0512
T5C0.0591
T6C0.0669
T7C0.1260
%
G90
G05
T1
X3.8937Y-4.3324
X3.8937Y-4.4899
X3.8937Y-4.6473
X3.8937Y-4.8048
X3.8937Y-4.9623
X3.8937Y-5.1198
X3.8937Y-5.2773
X3.8937Y-5.4347
X3.8937Y-5.5922
X3.9725Y-4.7261
X3.9725Y-4.8836
X3.9725Y-5.041
X3.9725Y-5.1985
X3.9725Y-5.356
X3.9725Y-5.5135
X4.0512Y-4.9623
X4.0512Y-5.1198
X4.0512Y-5.2773
X4.0512Y-5.4347
X4.0512Y-5.5922
X4.0551Y-4.6555
X4.065Y-4.4193
X4.0906Y-4.3324
X4.1043Y-4.8917
X4.13Y-5.041
X4.13Y-5.1985
X4.13Y-5.356
X4.13Y-5.5135
X4.13Y-5.671
X4.1693Y-4.0962
X4.1693Y-4.2536
X4.1693Y-4.5292
X4.1693Y-4.7655
X4.1693Y-4.9229
X4.1693Y-5.7891
X4.2087Y-4.4111
X4.2087Y-5.1198
X4.2087Y-5.2773
X4.2087Y-5.4347
X4.2087Y-5.5922
X4.2481Y-5.0017
X4.2481Y-5.7103
X4.252Y-4.4882
X4.2874Y-4.3324
X4.2874Y-4.8048
X4.2874Y-5.1985
X4.2874Y-5.356
X4.2874Y-5.5135
X4.2874Y-5.8284
X4.3268Y-4.0962
X4.3268Y-4.5686
X4.3268Y-5.0804
X4.3504Y-4.6358
X4.3662Y-4.4111
X4.3662Y-4.9623
X4.3662Y-5.2773
X4.3662Y-5.4347
X4.3662Y-5.7497
X4.4056Y-5.1592
X4.4094Y-4.8228
X4.4449Y-5.041
X4.4449Y-5.8284
X4.4843Y-4.2536
X4.4843Y-4.4505
X4.4843Y-4.8442
X4.4843Y-5.2379
X4.4843Y-5.5529
X4.5177Y-4.6752
X4.5237Y-4.9623
X4.5237Y-5.1198
X4.563Y-4.3324
X4.563Y-5.3166
X4.5768Y-4.7244
X4.5768Y-4.8228
X4.6024Y-5.1985
X4.6024Y-5.4741
X4.6024Y-5.6316
X4.6024Y-5.7891
X4.6063Y-4.9409
X4.6063Y-5.0492
X4.6418Y-4.1355
X4.6418Y-4.4111
X4.6418Y-4.5686
X4.6811Y-4.2536
X4.6811Y-4.6867
X4.6811Y-5.5529
X4.6811Y-5.7103
X4.6949Y-4.8622
X4.7028Y-4.8228
X4.7205Y-4.4899
X4.7205Y-4.9623
X4.7205Y-5.1198
X4.7205Y-5.2773
X4.7205Y-5.4347
X4.7205Y-5.8284
X4.7599Y-4.3324
X4.7599Y-5.6316
X4.7736Y-4.8228
X4.7736Y-4.8622
X4.7835Y-4.7736
X4.7993Y-5.356
X4.7993Y-5.5135
X4.7993Y-5.7497
X4.8386Y-4.4111
X4.8386Y-4.9229
X4.8386Y-5.0804
X4.8425Y-4.4882
X4.8425Y-5.2657
X4.878Y-5.1985
X4.878Y-5.4347
X4.878Y-5.5922
X4.878Y-5.8284
X4.8917Y-4.8228
X4.9174Y-5.0017
X4.9174Y-5.3166
X4.9174Y-5.7103
X4.9409Y-4.7441
X4.9567Y-5.1198
X4.9567Y-5.5135
X4.9902Y-4.9409
X4.9961Y-4.2536
X5.0Y-5.2657
X5.0098Y-4.8228
X5.0197Y-4.872
X5.0355Y-5.5922
X5.0355Y-5.8284
X5.0749Y-4.3718
X5.0749Y-4.5292
X5.0749Y-5.3166
X5.091Y-4.872
X5.1142Y-4.7261
X5.1142Y-4.9623
X5.1142Y-5.1198
X5.1142Y-5.5135
X5.1181Y-4.9016
X5.1536Y-4.1355
X5.1536Y-4.293
X5.1536Y-4.4505
X5.1536Y-5.6316
X5.1536Y-5.7891
X5.193Y-5.4347
X5.2323Y-4.3718
X5.2323Y-4.7655
X5.2323Y-5.1592
X5.2323Y-5.3166
X5.2323Y-5.5529
X5.2323Y-5.7103
X5.2362Y-4.9409
X5.2362Y-5.0492
X5.2717Y-4.8836
X5.2717Y-5.8284
X5.3111Y-4.293
X5.3111Y-5.0017
X5.3111Y-5.2379
X5.3111Y-5.3954
X5.3111Y-5.6316
X5.315Y-4.7244
X5.3346Y-4.6457
X5.3504Y-4.4111
X5.3504Y-5.1198
X5.3504Y-5.5135
X5.3504Y-5.7497
X5.3898Y-4.9229
X5.3898Y-5.3166
X5.4232Y-4.4882
X5.4292Y-4.3324
X5.4292Y-5.041
X5.4292Y-5.1985
X5.4292Y-5.4347
X5.4292Y-5.8284
X5.4686Y-4.6473
X5.4686Y-5.7103
X5.5079Y-4.4111
X5.5079Y-4.8836
X5.5079Y-5.1198
X5.5079Y-5.2773
X5.5473Y-4.0962
X5.5473Y-5.0017
X5.5473Y-5.3954
X5.5473Y-5.5529
X5.5473Y-5.7891
X5.5807Y-4.8228
X5.5867Y-5.1985
X5.5867Y-5.671
X5.626Y-4.9229
X5.626Y-5.0804
X5.626Y-5.3166
X5.626Y-5.4741
X5.6654Y-4.1355
X5.6654Y-4.293
X5.6654Y-4.4505
X5.6654Y-4.7655
X5.6654Y-5.5922
X5.6654Y-5.7497
X5.7048Y-5.0017
X5.7048Y-5.1592
X5.7048Y-5.3954
X5.7283Y-4.8917
X5.7441Y-5.2773
X5.7441Y-5.5135
X5.7835Y-4.3324
X5.7835Y-4.9229
X5.7835Y-5.0804
X5.8229Y-4.6867
X5.8229Y-5.1985
X5.8229Y-5.356
X5.8229Y-5.5922
X5.8623Y-4.8048
X5.8623Y-5.0017
X5.8623Y-5.4741
X5.9016Y-4.3718
X5.9016Y-4.5292
X5.9016Y-5.1198
X5.9016Y-5.2773
X5.941Y-4.6473
X5.941Y-4.8836
X5.941Y-5.3954
X5.941Y-5.5529
T2
X5.7717Y-4.1732
X5.7993Y-4.1064
X5.7993Y-4.24
X5.8661Y-4.0787
X5.8661Y-4.2677
X5.933Y-4.1064
X5.933Y-4.24
X5.9606Y-4.1732
X5.7717Y-5.7677
X5.7993Y-5.7009
X5.7993Y-5.8345
X5.8661Y-5.6732
X5.8661Y-5.8622
X5.933Y-5.7009
X5.933Y-5.8345
X5.9606Y-5.7677
X3.8819Y-5.7677
X3.9096Y-5.7009
X3.9096Y-5.8345
X3.9764Y-5.6732
X3.9764Y-5.8622
X4.0432Y-5.7009
X4.0432Y-5.8345
X4.0709Y-5.7677
X3.8819Y-4.1732
X3.9096Y-4.1064
X3.9096Y-4.24
X3.9764Y-4.0787
X3.9764Y-4.2677
X4.0432Y-4.1064
X4.0432Y-4.24
X4.0709Y-4.1732
T3
X4.7835Y-4.1831
X4.9213Y-4.1831
X5.0591Y-4.1831
X5.2953Y-4.1831
X5.4331Y-4.1831
X5.5709Y-4.1831
X4.2717Y-4.1831
X4.4094Y-4.1831
X4.5472Y-4.1831
T4
X4.498Y-5.4232
X5.0492Y-5.4232
T5
X4.498Y-5.7087
X5.0492Y-5.7087
T7
X5.8661Y-4.1732
X5.8661Y-5.7677
X3.9764Y-5.7677
X3.9764Y-4.1732
T5
G00X5.4429Y-5.6201
M15
G01X5.4429Y-5.5217
M16
G05
T6
G00X4.4035Y-5.6161
M15
G01X4.4035Y-5.5256
M16
G05
T0
M30
