%TF.GenerationSoftware,KiCad,Pcbnew,(5.1.6-0)*%
%TF.CreationDate,2023-05-11T16:35:51-07:00*%
%TF.ProjectId,input_buffer_RCA,696e7075-745f-4627-9566-6665725f5243,rev?*%
%TF.SameCoordinates,Original*%
%TF.FileFunction,Legend,Top*%
%TF.FilePolarity,Positive*%
%FSLAX46Y46*%
G04 Gerber Fmt 4.6, Leading zero omitted, Abs format (unit mm)*
G04 Created by KiCad (PCBNEW (5.1.6-0)) date 2023-05-11 16:35:51*
%MOMM*%
%LPD*%
G01*
G04 APERTURE LIST*
%ADD10C,0.150000*%
%ADD11C,0.120000*%
G04 APERTURE END LIST*
D10*
X141904761Y-148476190D02*
X141952380Y-148333333D01*
X141952380Y-148095238D01*
X141904761Y-148000000D01*
X141857142Y-147952380D01*
X141761904Y-147904761D01*
X141666666Y-147904761D01*
X141571428Y-147952380D01*
X141523809Y-148000000D01*
X141476190Y-148095238D01*
X141428571Y-148285714D01*
X141380952Y-148380952D01*
X141333333Y-148428571D01*
X141238095Y-148476190D01*
X141142857Y-148476190D01*
X141047619Y-148428571D01*
X141000000Y-148380952D01*
X140952380Y-148285714D01*
X140952380Y-148047619D01*
X141000000Y-147904761D01*
X141285714Y-147571428D02*
X141952380Y-147380952D01*
X141476190Y-147190476D01*
X141952380Y-147000000D01*
X141285714Y-146809523D01*
X141952380Y-146428571D02*
X141285714Y-146428571D01*
X140952380Y-146428571D02*
X141000000Y-146476190D01*
X141047619Y-146428571D01*
X141000000Y-146380952D01*
X140952380Y-146428571D01*
X141047619Y-146428571D01*
X141285714Y-146095238D02*
X141285714Y-145714285D01*
X140952380Y-145952380D02*
X141809523Y-145952380D01*
X141904761Y-145904761D01*
X141952380Y-145809523D01*
X141952380Y-145714285D01*
X141904761Y-144952380D02*
X141952380Y-145047619D01*
X141952380Y-145238095D01*
X141904761Y-145333333D01*
X141857142Y-145380952D01*
X141761904Y-145428571D01*
X141476190Y-145428571D01*
X141380952Y-145380952D01*
X141333333Y-145333333D01*
X141285714Y-145238095D01*
X141285714Y-145047619D01*
X141333333Y-144952380D01*
X141952380Y-144523809D02*
X140952380Y-144523809D01*
X141952380Y-144095238D02*
X141428571Y-144095238D01*
X141333333Y-144142857D01*
X141285714Y-144238095D01*
X141285714Y-144380952D01*
X141333333Y-144476190D01*
X141380952Y-144523809D01*
X141904761Y-143190476D02*
X141952380Y-143285714D01*
X141952380Y-143476190D01*
X141904761Y-143571428D01*
X141857142Y-143619047D01*
X141761904Y-143666666D01*
X141476190Y-143666666D01*
X141380952Y-143619047D01*
X141333333Y-143571428D01*
X141285714Y-143476190D01*
X141285714Y-143285714D01*
X141333333Y-143190476D01*
X141952380Y-142761904D02*
X141285714Y-142761904D01*
X141476190Y-142761904D02*
X141380952Y-142714285D01*
X141333333Y-142666666D01*
X141285714Y-142571428D01*
X141285714Y-142476190D01*
X141952380Y-141714285D02*
X141428571Y-141714285D01*
X141333333Y-141761904D01*
X141285714Y-141857142D01*
X141285714Y-142047619D01*
X141333333Y-142142857D01*
X141904761Y-141714285D02*
X141952380Y-141809523D01*
X141952380Y-142047619D01*
X141904761Y-142142857D01*
X141809523Y-142190476D01*
X141714285Y-142190476D01*
X141619047Y-142142857D01*
X141571428Y-142047619D01*
X141571428Y-141809523D01*
X141523809Y-141714285D01*
X141285714Y-141380952D02*
X141285714Y-141000000D01*
X141952380Y-141238095D02*
X141095238Y-141238095D01*
X141000000Y-141190476D01*
X140952380Y-141095238D01*
X140952380Y-141000000D01*
X141285714Y-140809523D02*
X141285714Y-140428571D01*
X140952380Y-140666666D02*
X141809523Y-140666666D01*
X141904761Y-140619047D01*
X141952380Y-140523809D01*
X141952380Y-140428571D01*
X141952380Y-139333333D02*
X140952380Y-139333333D01*
X140952380Y-138952380D01*
X141000000Y-138857142D01*
X141047619Y-138809523D01*
X141142857Y-138761904D01*
X141285714Y-138761904D01*
X141380952Y-138809523D01*
X141428571Y-138857142D01*
X141476190Y-138952380D01*
X141476190Y-139333333D01*
X140952380Y-138047619D02*
X141666666Y-138047619D01*
X141809523Y-138095238D01*
X141904761Y-138190476D01*
X141952380Y-138333333D01*
X141952380Y-138428571D01*
X141952380Y-137000000D02*
X141476190Y-137333333D01*
X141952380Y-137571428D02*
X140952380Y-137571428D01*
X140952380Y-137190476D01*
X141000000Y-137095238D01*
X141047619Y-137047619D01*
X141142857Y-137000000D01*
X141285714Y-137000000D01*
X141380952Y-137047619D01*
X141428571Y-137095238D01*
X141476190Y-137190476D01*
X141476190Y-137571428D01*
X141666666Y-136619047D02*
X141666666Y-136142857D01*
X141952380Y-136714285D02*
X140952380Y-136380952D01*
X141952380Y-136047619D01*
X141904761Y-135761904D02*
X141952380Y-135619047D01*
X141952380Y-135380952D01*
X141904761Y-135285714D01*
X141857142Y-135238095D01*
X141761904Y-135190476D01*
X141666666Y-135190476D01*
X141571428Y-135238095D01*
X141523809Y-135285714D01*
X141476190Y-135380952D01*
X141428571Y-135571428D01*
X141380952Y-135666666D01*
X141333333Y-135714285D01*
X141238095Y-135761904D01*
X141142857Y-135761904D01*
X141047619Y-135714285D01*
X141000000Y-135666666D01*
X140952380Y-135571428D01*
X140952380Y-135333333D01*
X141000000Y-135190476D01*
X141047619Y-134809523D02*
X141000000Y-134761904D01*
X140952380Y-134666666D01*
X140952380Y-134428571D01*
X141000000Y-134333333D01*
X141047619Y-134285714D01*
X141142857Y-134238095D01*
X141238095Y-134238095D01*
X141380952Y-134285714D01*
X141952380Y-134857142D01*
X141952380Y-134238095D01*
X140952380Y-133904761D02*
X141952380Y-133238095D01*
X140952380Y-133238095D02*
X141952380Y-133904761D01*
X141952380Y-132333333D02*
X141952380Y-132904761D01*
X141952380Y-132619047D02*
X140952380Y-132619047D01*
X141095238Y-132714285D01*
X141190476Y-132809523D01*
X141238095Y-132904761D01*
X141904761Y-131952380D02*
X141952380Y-131809523D01*
X141952380Y-131571428D01*
X141904761Y-131476190D01*
X141857142Y-131428571D01*
X141761904Y-131380952D01*
X141666666Y-131380952D01*
X141571428Y-131428571D01*
X141523809Y-131476190D01*
X141476190Y-131571428D01*
X141428571Y-131761904D01*
X141380952Y-131857142D01*
X141333333Y-131904761D01*
X141238095Y-131952380D01*
X141142857Y-131952380D01*
X141047619Y-131904761D01*
X141000000Y-131857142D01*
X140952380Y-131761904D01*
X140952380Y-131523809D01*
X141000000Y-131380952D01*
X140952380Y-130761904D02*
X140952380Y-130666666D01*
X141000000Y-130571428D01*
X141047619Y-130523809D01*
X141142857Y-130476190D01*
X141333333Y-130428571D01*
X141571428Y-130428571D01*
X141761904Y-130476190D01*
X141857142Y-130523809D01*
X141904761Y-130571428D01*
X141952380Y-130666666D01*
X141952380Y-130761904D01*
X141904761Y-130857142D01*
X141857142Y-130904761D01*
X141761904Y-130952380D01*
X141571428Y-131000000D01*
X141333333Y-131000000D01*
X141142857Y-130952380D01*
X141047619Y-130904761D01*
X141000000Y-130857142D01*
X140952380Y-130761904D01*
X141952380Y-129476190D02*
X141952380Y-130047619D01*
X141952380Y-129761904D02*
X140952380Y-129761904D01*
X141095238Y-129857142D01*
X141190476Y-129952380D01*
X141238095Y-130047619D01*
X140952380Y-129142857D02*
X141952380Y-128476190D01*
X140952380Y-128476190D02*
X141952380Y-129142857D01*
X99678571Y-136439270D02*
X99726190Y-136302366D01*
X99773809Y-136260699D01*
X99869047Y-136224985D01*
X100011904Y-136242842D01*
X100107142Y-136302366D01*
X100154761Y-136355937D01*
X100202380Y-136457127D01*
X100202380Y-136838080D01*
X99202380Y-136713080D01*
X99202380Y-136379747D01*
X99250000Y-136290461D01*
X99297619Y-136248794D01*
X99392857Y-136213080D01*
X99488095Y-136224985D01*
X99583333Y-136284508D01*
X99630952Y-136338080D01*
X99678571Y-136439270D01*
X99678571Y-136772604D01*
X100202380Y-135838080D02*
X99535714Y-135754747D01*
X99202380Y-135713080D02*
X99250000Y-135766651D01*
X99297619Y-135724985D01*
X99250000Y-135671413D01*
X99202380Y-135713080D01*
X99297619Y-135724985D01*
X100202380Y-135219032D02*
X100154761Y-135308318D01*
X100059523Y-135344032D01*
X99202380Y-135236889D01*
X100202380Y-134695223D02*
X100154761Y-134784508D01*
X100107142Y-134826175D01*
X100011904Y-134861889D01*
X99726190Y-134826175D01*
X99630952Y-134766651D01*
X99583333Y-134713080D01*
X99535714Y-134611889D01*
X99535714Y-134469032D01*
X99583333Y-134379747D01*
X99630952Y-134338080D01*
X99726190Y-134302366D01*
X100011904Y-134338080D01*
X100107142Y-134397604D01*
X100154761Y-134451175D01*
X100202380Y-134552366D01*
X100202380Y-134695223D01*
X99535714Y-133421413D02*
X100202380Y-133504747D01*
X99535714Y-133849985D02*
X100059523Y-133915461D01*
X100154761Y-133879747D01*
X100202380Y-133790461D01*
X100202380Y-133647604D01*
X100154761Y-133546413D01*
X100107142Y-133492842D01*
X100154761Y-133070223D02*
X100202380Y-132980937D01*
X100202380Y-132790461D01*
X100154761Y-132689270D01*
X100059523Y-132629747D01*
X100011904Y-132623794D01*
X99916666Y-132659508D01*
X99869047Y-132748794D01*
X99869047Y-132891651D01*
X99821428Y-132980937D01*
X99726190Y-133016651D01*
X99678571Y-133010699D01*
X99583333Y-132951175D01*
X99535714Y-132849985D01*
X99535714Y-132707127D01*
X99583333Y-132617842D01*
X100154761Y-131498794D02*
X100202380Y-131361889D01*
X100202380Y-131123794D01*
X100154761Y-131022604D01*
X100107142Y-130969032D01*
X100011904Y-130909508D01*
X99916666Y-130897604D01*
X99821428Y-130933318D01*
X99773809Y-130974985D01*
X99726190Y-131064270D01*
X99678571Y-131248794D01*
X99630952Y-131338080D01*
X99583333Y-131379747D01*
X99488095Y-131415461D01*
X99392857Y-131403556D01*
X99297619Y-131344032D01*
X99250000Y-131290461D01*
X99202380Y-131189270D01*
X99202380Y-130951175D01*
X99250000Y-130814270D01*
X100202380Y-130361889D02*
X100154761Y-130451175D01*
X100107142Y-130492842D01*
X100011904Y-130528556D01*
X99726190Y-130492842D01*
X99630952Y-130433318D01*
X99583333Y-130379747D01*
X99535714Y-130278556D01*
X99535714Y-130135699D01*
X99583333Y-130046413D01*
X99630952Y-130004747D01*
X99726190Y-129969032D01*
X100011904Y-130004747D01*
X100107142Y-130064270D01*
X100154761Y-130117842D01*
X100202380Y-130219032D01*
X100202380Y-130361889D01*
X99535714Y-129088080D02*
X100202380Y-129171413D01*
X99535714Y-129516651D02*
X100059523Y-129582127D01*
X100154761Y-129546413D01*
X100202380Y-129457127D01*
X100202380Y-129314270D01*
X100154761Y-129213080D01*
X100107142Y-129159508D01*
X99535714Y-128611889D02*
X100202380Y-128695223D01*
X99630952Y-128623794D02*
X99583333Y-128570223D01*
X99535714Y-128469032D01*
X99535714Y-128326175D01*
X99583333Y-128236889D01*
X99678571Y-128201175D01*
X100202380Y-128266651D01*
X100202380Y-127361889D02*
X99202380Y-127236889D01*
X100154761Y-127355937D02*
X100202380Y-127457127D01*
X100202380Y-127647604D01*
X100154761Y-127736889D01*
X100107142Y-127778556D01*
X100011904Y-127814270D01*
X99726190Y-127778556D01*
X99630952Y-127719032D01*
X99583333Y-127665461D01*
X99535714Y-127564270D01*
X99535714Y-127373794D01*
X99583333Y-127284508D01*
X137059523Y-137107142D02*
X137011904Y-137154761D01*
X136869047Y-137202380D01*
X136773809Y-137202380D01*
X136630952Y-137154761D01*
X136535714Y-137059523D01*
X136488095Y-136964285D01*
X136440476Y-136773809D01*
X136440476Y-136630952D01*
X136488095Y-136440476D01*
X136535714Y-136345238D01*
X136630952Y-136250000D01*
X136773809Y-136202380D01*
X136869047Y-136202380D01*
X137011904Y-136250000D01*
X137059523Y-136297619D01*
X137488095Y-137202380D02*
X137488095Y-136202380D01*
X137488095Y-136678571D02*
X138059523Y-136678571D01*
X138059523Y-137202380D02*
X138059523Y-136202380D01*
X138488095Y-136297619D02*
X138535714Y-136250000D01*
X138630952Y-136202380D01*
X138869047Y-136202380D01*
X138964285Y-136250000D01*
X139011904Y-136297619D01*
X139059523Y-136392857D01*
X139059523Y-136488095D01*
X139011904Y-136630952D01*
X138440476Y-137202380D01*
X139059523Y-137202380D01*
X110059523Y-137107142D02*
X110011904Y-137154761D01*
X109869047Y-137202380D01*
X109773809Y-137202380D01*
X109630952Y-137154761D01*
X109535714Y-137059523D01*
X109488095Y-136964285D01*
X109440476Y-136773809D01*
X109440476Y-136630952D01*
X109488095Y-136440476D01*
X109535714Y-136345238D01*
X109630952Y-136250000D01*
X109773809Y-136202380D01*
X109869047Y-136202380D01*
X110011904Y-136250000D01*
X110059523Y-136297619D01*
X110488095Y-137202380D02*
X110488095Y-136202380D01*
X110488095Y-136678571D02*
X111059523Y-136678571D01*
X111059523Y-137202380D02*
X111059523Y-136202380D01*
X112059523Y-137202380D02*
X111488095Y-137202380D01*
X111773809Y-137202380D02*
X111773809Y-136202380D01*
X111678571Y-136345238D01*
X111583333Y-136440476D01*
X111488095Y-136488095D01*
X141440476Y-110857142D02*
X141392857Y-110904761D01*
X141250000Y-110952380D01*
X141154761Y-110952380D01*
X141011904Y-110904761D01*
X140916666Y-110809523D01*
X140869047Y-110714285D01*
X140821428Y-110523809D01*
X140821428Y-110380952D01*
X140869047Y-110190476D01*
X140916666Y-110095238D01*
X141011904Y-110000000D01*
X141154761Y-109952380D01*
X141250000Y-109952380D01*
X141392857Y-110000000D01*
X141440476Y-110047619D01*
X141869047Y-110952380D02*
X141869047Y-109952380D01*
X141869047Y-110428571D02*
X142440476Y-110428571D01*
X142440476Y-110952380D02*
X142440476Y-109952380D01*
X142869047Y-110047619D02*
X142916666Y-110000000D01*
X143011904Y-109952380D01*
X143250000Y-109952380D01*
X143345238Y-110000000D01*
X143392857Y-110047619D01*
X143440476Y-110142857D01*
X143440476Y-110238095D01*
X143392857Y-110380952D01*
X142821428Y-110952380D01*
X143440476Y-110952380D01*
X143869047Y-110571428D02*
X144630952Y-110571428D01*
X136940476Y-110857142D02*
X136892857Y-110904761D01*
X136750000Y-110952380D01*
X136654761Y-110952380D01*
X136511904Y-110904761D01*
X136416666Y-110809523D01*
X136369047Y-110714285D01*
X136321428Y-110523809D01*
X136321428Y-110380952D01*
X136369047Y-110190476D01*
X136416666Y-110095238D01*
X136511904Y-110000000D01*
X136654761Y-109952380D01*
X136750000Y-109952380D01*
X136892857Y-110000000D01*
X136940476Y-110047619D01*
X137369047Y-110952380D02*
X137369047Y-109952380D01*
X137369047Y-110428571D02*
X137940476Y-110428571D01*
X137940476Y-110952380D02*
X137940476Y-109952380D01*
X138369047Y-110047619D02*
X138416666Y-110000000D01*
X138511904Y-109952380D01*
X138750000Y-109952380D01*
X138845238Y-110000000D01*
X138892857Y-110047619D01*
X138940476Y-110142857D01*
X138940476Y-110238095D01*
X138892857Y-110380952D01*
X138321428Y-110952380D01*
X138940476Y-110952380D01*
X139369047Y-110571428D02*
X140130952Y-110571428D01*
X139750000Y-110952380D02*
X139750000Y-110190476D01*
X106190476Y-110857142D02*
X106142857Y-110904761D01*
X106000000Y-110952380D01*
X105904761Y-110952380D01*
X105761904Y-110904761D01*
X105666666Y-110809523D01*
X105619047Y-110714285D01*
X105571428Y-110523809D01*
X105571428Y-110380952D01*
X105619047Y-110190476D01*
X105666666Y-110095238D01*
X105761904Y-110000000D01*
X105904761Y-109952380D01*
X106000000Y-109952380D01*
X106142857Y-110000000D01*
X106190476Y-110047619D01*
X106619047Y-110952380D02*
X106619047Y-109952380D01*
X106619047Y-110428571D02*
X107190476Y-110428571D01*
X107190476Y-110952380D02*
X107190476Y-109952380D01*
X108190476Y-110952380D02*
X107619047Y-110952380D01*
X107904761Y-110952380D02*
X107904761Y-109952380D01*
X107809523Y-110095238D01*
X107714285Y-110190476D01*
X107619047Y-110238095D01*
X108619047Y-110571428D02*
X109380952Y-110571428D01*
X111190476Y-110857142D02*
X111142857Y-110904761D01*
X111000000Y-110952380D01*
X110904761Y-110952380D01*
X110761904Y-110904761D01*
X110666666Y-110809523D01*
X110619047Y-110714285D01*
X110571428Y-110523809D01*
X110571428Y-110380952D01*
X110619047Y-110190476D01*
X110666666Y-110095238D01*
X110761904Y-110000000D01*
X110904761Y-109952380D01*
X111000000Y-109952380D01*
X111142857Y-110000000D01*
X111190476Y-110047619D01*
X111619047Y-110952380D02*
X111619047Y-109952380D01*
X111619047Y-110428571D02*
X112190476Y-110428571D01*
X112190476Y-110952380D02*
X112190476Y-109952380D01*
X113190476Y-110952380D02*
X112619047Y-110952380D01*
X112904761Y-110952380D02*
X112904761Y-109952380D01*
X112809523Y-110095238D01*
X112714285Y-110190476D01*
X112619047Y-110238095D01*
X113619047Y-110571428D02*
X114380952Y-110571428D01*
X114000000Y-110952380D02*
X114000000Y-110190476D01*
X129047619Y-109952380D02*
X129380952Y-110952380D01*
X129714285Y-109952380D01*
X130047619Y-110571428D02*
X130809523Y-110571428D01*
X130428571Y-110952380D02*
X130428571Y-110190476D01*
X120047619Y-109952380D02*
X120380952Y-110952380D01*
X120714285Y-109952380D01*
X121047619Y-110571428D02*
X121809523Y-110571428D01*
X115988095Y-110000000D02*
X115892857Y-109952380D01*
X115750000Y-109952380D01*
X115607142Y-110000000D01*
X115511904Y-110095238D01*
X115464285Y-110190476D01*
X115416666Y-110380952D01*
X115416666Y-110523809D01*
X115464285Y-110714285D01*
X115511904Y-110809523D01*
X115607142Y-110904761D01*
X115750000Y-110952380D01*
X115845238Y-110952380D01*
X115988095Y-110904761D01*
X116035714Y-110857142D01*
X116035714Y-110523809D01*
X115845238Y-110523809D01*
X116464285Y-110952380D02*
X116464285Y-109952380D01*
X117035714Y-110952380D01*
X117035714Y-109952380D01*
X117511904Y-110952380D02*
X117511904Y-109952380D01*
X117750000Y-109952380D01*
X117892857Y-110000000D01*
X117988095Y-110095238D01*
X118035714Y-110190476D01*
X118083333Y-110380952D01*
X118083333Y-110523809D01*
X118035714Y-110714285D01*
X117988095Y-110809523D01*
X117892857Y-110904761D01*
X117750000Y-110952380D01*
X117511904Y-110952380D01*
X132738095Y-110000000D02*
X132642857Y-109952380D01*
X132500000Y-109952380D01*
X132357142Y-110000000D01*
X132261904Y-110095238D01*
X132214285Y-110190476D01*
X132166666Y-110380952D01*
X132166666Y-110523809D01*
X132214285Y-110714285D01*
X132261904Y-110809523D01*
X132357142Y-110904761D01*
X132500000Y-110952380D01*
X132595238Y-110952380D01*
X132738095Y-110904761D01*
X132785714Y-110857142D01*
X132785714Y-110523809D01*
X132595238Y-110523809D01*
X133214285Y-110952380D02*
X133214285Y-109952380D01*
X133785714Y-110952380D01*
X133785714Y-109952380D01*
X134261904Y-110952380D02*
X134261904Y-109952380D01*
X134500000Y-109952380D01*
X134642857Y-110000000D01*
X134738095Y-110095238D01*
X134785714Y-110190476D01*
X134833333Y-110380952D01*
X134833333Y-110523809D01*
X134785714Y-110714285D01*
X134738095Y-110809523D01*
X134642857Y-110904761D01*
X134500000Y-110952380D01*
X134261904Y-110952380D01*
X124238095Y-110000000D02*
X124142857Y-109952380D01*
X124000000Y-109952380D01*
X123857142Y-110000000D01*
X123761904Y-110095238D01*
X123714285Y-110190476D01*
X123666666Y-110380952D01*
X123666666Y-110523809D01*
X123714285Y-110714285D01*
X123761904Y-110809523D01*
X123857142Y-110904761D01*
X124000000Y-110952380D01*
X124095238Y-110952380D01*
X124238095Y-110904761D01*
X124285714Y-110857142D01*
X124285714Y-110523809D01*
X124095238Y-110523809D01*
X124714285Y-110952380D02*
X124714285Y-109952380D01*
X125285714Y-110952380D01*
X125285714Y-109952380D01*
X125761904Y-110952380D02*
X125761904Y-109952380D01*
X126000000Y-109952380D01*
X126142857Y-110000000D01*
X126238095Y-110095238D01*
X126285714Y-110190476D01*
X126333333Y-110380952D01*
X126333333Y-110523809D01*
X126285714Y-110714285D01*
X126238095Y-110809523D01*
X126142857Y-110904761D01*
X126000000Y-110952380D01*
X125761904Y-110952380D01*
D11*
%TO.C,D2*%
X127750000Y-132750000D02*
X127750000Y-134750000D01*
X127750000Y-134750000D02*
X131650000Y-134750000D01*
X127750000Y-132750000D02*
X131650000Y-132750000D01*
%TO.C,D1*%
X122250000Y-134750000D02*
X122250000Y-132750000D01*
X122250000Y-132750000D02*
X118350000Y-132750000D01*
X122250000Y-134750000D02*
X118350000Y-134750000D01*
%TO.C,J1*%
X111500000Y-150250000D02*
X138500000Y-150250000D01*
X138500000Y-150250000D02*
X138500000Y-143750000D01*
X126500000Y-137750000D02*
X116000000Y-137750000D01*
X125000000Y-150250000D02*
X125000000Y-137750000D01*
X132000000Y-150250000D02*
X132000000Y-149250000D01*
X118000000Y-150250000D02*
X118000000Y-149250000D01*
X111500000Y-150250000D02*
X111500000Y-143750000D01*
X111500000Y-150250000D02*
X110000000Y-150250000D01*
X110000000Y-149750000D02*
X110000000Y-150250000D01*
X110000000Y-150250000D02*
X110000000Y-149750000D01*
X111500000Y-139250000D02*
X111500000Y-137750000D01*
X111500000Y-137750000D02*
X112500000Y-137750000D01*
X130000000Y-137750000D02*
X138500000Y-137750000D01*
X138500000Y-137750000D02*
X138500000Y-139250000D01*
%TO.C,U3*%
X139750000Y-120810000D02*
X141700000Y-120810000D01*
X139750000Y-120810000D02*
X137800000Y-120810000D01*
X139750000Y-115690000D02*
X141700000Y-115690000D01*
X139750000Y-115690000D02*
X136300000Y-115690000D01*
%TO.C,U2*%
X110000000Y-120810000D02*
X111950000Y-120810000D01*
X110000000Y-120810000D02*
X108050000Y-120810000D01*
X110000000Y-115690000D02*
X111950000Y-115690000D01*
X110000000Y-115690000D02*
X106550000Y-115690000D01*
%TO.C,U1*%
X125000000Y-120810000D02*
X126950000Y-120810000D01*
X125000000Y-120810000D02*
X123050000Y-120810000D01*
X125000000Y-115690000D02*
X126950000Y-115690000D01*
X125000000Y-115690000D02*
X121550000Y-115690000D01*
%TO.C,R14*%
X149160000Y-114647936D02*
X149160000Y-115852064D01*
X147340000Y-114647936D02*
X147340000Y-115852064D01*
%TO.C,R13*%
X134910000Y-114647936D02*
X134910000Y-115852064D01*
X133090000Y-114647936D02*
X133090000Y-115852064D01*
%TO.C,R12*%
X116660000Y-114647936D02*
X116660000Y-115852064D01*
X114840000Y-114647936D02*
X114840000Y-115852064D01*
%TO.C,R11*%
X102410000Y-114647936D02*
X102410000Y-115852064D01*
X100590000Y-114647936D02*
X100590000Y-115852064D01*
%TO.C,R10*%
X146410000Y-114647936D02*
X146410000Y-115852064D01*
X144590000Y-114647936D02*
X144590000Y-115852064D01*
%TO.C,R9*%
X105160000Y-114647936D02*
X105160000Y-115852064D01*
X103340000Y-114647936D02*
X103340000Y-115852064D01*
%TO.C,R8*%
X144590000Y-121852064D02*
X144590000Y-120647936D01*
X146410000Y-121852064D02*
X146410000Y-120647936D01*
%TO.C,R7*%
X103340000Y-121852064D02*
X103340000Y-120647936D01*
X105160000Y-121852064D02*
X105160000Y-120647936D01*
%TO.C,R6*%
X131660000Y-115647936D02*
X131660000Y-116852064D01*
X129840000Y-115647936D02*
X129840000Y-116852064D01*
%TO.C,R5*%
X118090000Y-119602064D02*
X118090000Y-118397936D01*
X119910000Y-119602064D02*
X119910000Y-118397936D01*
%TO.C,R4*%
X130602064Y-126410000D02*
X129397936Y-126410000D01*
X130602064Y-124590000D02*
X129397936Y-124590000D01*
%TO.C,R3*%
X119397936Y-124590000D02*
X120602064Y-124590000D01*
X119397936Y-126410000D02*
X120602064Y-126410000D01*
%TO.C,R2*%
X129397936Y-130090000D02*
X130602064Y-130090000D01*
X129397936Y-131910000D02*
X130602064Y-131910000D01*
%TO.C,R1*%
X120602064Y-131910000D02*
X119397936Y-131910000D01*
X120602064Y-130090000D02*
X119397936Y-130090000D01*
%TO.C,J4*%
X121000000Y-104500000D02*
X121000000Y-102750000D01*
X122000000Y-104500000D02*
X121000000Y-104500000D01*
X122000000Y-102750000D02*
X122000000Y-104500000D01*
X124500000Y-104500000D02*
X124500000Y-102750000D01*
X125500000Y-104500000D02*
X124500000Y-104500000D01*
X125500000Y-102750000D02*
X125500000Y-104500000D01*
X129000000Y-104500000D02*
X129000000Y-102750000D01*
X128000000Y-104500000D02*
X128000000Y-102750000D01*
X129000000Y-104500000D02*
X128000000Y-104500000D01*
X129750000Y-106250000D02*
G75*
G03*
X129750000Y-106250000I-1250000J0D01*
G01*
X126250000Y-106250000D02*
G75*
G03*
X126250000Y-106250000I-1250000J0D01*
G01*
X122750000Y-106250000D02*
G75*
G03*
X122750000Y-106250000I-1250000J0D01*
G01*
X119000000Y-109750000D02*
X131000000Y-109750000D01*
X119000000Y-102750000D02*
X131000000Y-102750000D01*
X131000000Y-109750000D02*
X131000000Y-102750000D01*
X119000000Y-109750000D02*
X119000000Y-102750000D01*
%TO.C,J3*%
X134000000Y-104500000D02*
X134000000Y-102750000D01*
X135000000Y-104500000D02*
X134000000Y-104500000D01*
X135000000Y-102750000D02*
X135000000Y-104500000D01*
X137500000Y-104500000D02*
X137500000Y-102750000D01*
X138500000Y-104500000D02*
X137500000Y-104500000D01*
X138500000Y-102750000D02*
X138500000Y-104500000D01*
X142000000Y-104500000D02*
X142000000Y-102750000D01*
X141000000Y-104500000D02*
X141000000Y-102750000D01*
X142000000Y-104500000D02*
X141000000Y-104500000D01*
X142750000Y-106250000D02*
G75*
G03*
X142750000Y-106250000I-1250000J0D01*
G01*
X139250000Y-106250000D02*
G75*
G03*
X139250000Y-106250000I-1250000J0D01*
G01*
X135750000Y-106250000D02*
G75*
G03*
X135750000Y-106250000I-1250000J0D01*
G01*
X132000000Y-109750000D02*
X144000000Y-109750000D01*
X132000000Y-102750000D02*
X144000000Y-102750000D01*
X144000000Y-109750000D02*
X144000000Y-102750000D01*
X132000000Y-109750000D02*
X132000000Y-102750000D01*
%TO.C,J2*%
X108000000Y-104500000D02*
X108000000Y-102750000D01*
X109000000Y-104500000D02*
X108000000Y-104500000D01*
X109000000Y-102750000D02*
X109000000Y-104500000D01*
X111500000Y-104500000D02*
X111500000Y-102750000D01*
X112500000Y-104500000D02*
X111500000Y-104500000D01*
X112500000Y-102750000D02*
X112500000Y-104500000D01*
X116000000Y-104500000D02*
X116000000Y-102750000D01*
X115000000Y-104500000D02*
X115000000Y-102750000D01*
X116000000Y-104500000D02*
X115000000Y-104500000D01*
X116750000Y-106250000D02*
G75*
G03*
X116750000Y-106250000I-1250000J0D01*
G01*
X113250000Y-106250000D02*
G75*
G03*
X113250000Y-106250000I-1250000J0D01*
G01*
X109750000Y-106250000D02*
G75*
G03*
X109750000Y-106250000I-1250000J0D01*
G01*
X106000000Y-109750000D02*
X118000000Y-109750000D01*
X106000000Y-102750000D02*
X118000000Y-102750000D01*
X118000000Y-109750000D02*
X118000000Y-102750000D01*
X106000000Y-109750000D02*
X106000000Y-102750000D01*
%TO.C,C8*%
X138147936Y-121590000D02*
X139352064Y-121590000D01*
X138147936Y-123410000D02*
X139352064Y-123410000D01*
%TO.C,C7*%
X108397936Y-121590000D02*
X109602064Y-121590000D01*
X108397936Y-123410000D02*
X109602064Y-123410000D01*
%TO.C,C6*%
X123647936Y-121590000D02*
X124852064Y-121590000D01*
X123647936Y-123410000D02*
X124852064Y-123410000D01*
%TO.C,C5*%
X110397936Y-113090000D02*
X111602064Y-113090000D01*
X110397936Y-114910000D02*
X111602064Y-114910000D01*
%TO.C,C4*%
X140147936Y-113090000D02*
X141352064Y-113090000D01*
X140147936Y-114910000D02*
X141352064Y-114910000D01*
%TO.C,C3*%
X125397936Y-113090000D02*
X126602064Y-113090000D01*
X125397936Y-114910000D02*
X126602064Y-114910000D01*
%TO.C,C2*%
X130602064Y-129160000D02*
X129397936Y-129160000D01*
X130602064Y-127340000D02*
X129397936Y-127340000D01*
%TO.C,C1*%
X119397936Y-127340000D02*
X120602064Y-127340000D01*
X119397936Y-129160000D02*
X120602064Y-129160000D01*
%TO.C,D2*%
D10*
X132761904Y-134202380D02*
X132761904Y-133202380D01*
X133000000Y-133202380D01*
X133142857Y-133250000D01*
X133238095Y-133345238D01*
X133285714Y-133440476D01*
X133333333Y-133630952D01*
X133333333Y-133773809D01*
X133285714Y-133964285D01*
X133238095Y-134059523D01*
X133142857Y-134154761D01*
X133000000Y-134202380D01*
X132761904Y-134202380D01*
X133714285Y-133297619D02*
X133761904Y-133250000D01*
X133857142Y-133202380D01*
X134095238Y-133202380D01*
X134190476Y-133250000D01*
X134238095Y-133297619D01*
X134285714Y-133392857D01*
X134285714Y-133488095D01*
X134238095Y-133630952D01*
X133666666Y-134202380D01*
X134285714Y-134202380D01*
%TO.C,D1*%
X116011904Y-134202380D02*
X116011904Y-133202380D01*
X116250000Y-133202380D01*
X116392857Y-133250000D01*
X116488095Y-133345238D01*
X116535714Y-133440476D01*
X116583333Y-133630952D01*
X116583333Y-133773809D01*
X116535714Y-133964285D01*
X116488095Y-134059523D01*
X116392857Y-134154761D01*
X116250000Y-134202380D01*
X116011904Y-134202380D01*
X117535714Y-134202380D02*
X116964285Y-134202380D01*
X117250000Y-134202380D02*
X117250000Y-133202380D01*
X117154761Y-133345238D01*
X117059523Y-133440476D01*
X116964285Y-133488095D01*
%TO.C,J1*%
X122916666Y-139202380D02*
X122916666Y-139916666D01*
X122869047Y-140059523D01*
X122773809Y-140154761D01*
X122630952Y-140202380D01*
X122535714Y-140202380D01*
X123916666Y-140202380D02*
X123345238Y-140202380D01*
X123630952Y-140202380D02*
X123630952Y-139202380D01*
X123535714Y-139345238D01*
X123440476Y-139440476D01*
X123345238Y-139488095D01*
%TO.C,U3*%
X135988095Y-114302380D02*
X135988095Y-115111904D01*
X136035714Y-115207142D01*
X136083333Y-115254761D01*
X136178571Y-115302380D01*
X136369047Y-115302380D01*
X136464285Y-115254761D01*
X136511904Y-115207142D01*
X136559523Y-115111904D01*
X136559523Y-114302380D01*
X136940476Y-114302380D02*
X137559523Y-114302380D01*
X137226190Y-114683333D01*
X137369047Y-114683333D01*
X137464285Y-114730952D01*
X137511904Y-114778571D01*
X137559523Y-114873809D01*
X137559523Y-115111904D01*
X137511904Y-115207142D01*
X137464285Y-115254761D01*
X137369047Y-115302380D01*
X137083333Y-115302380D01*
X136988095Y-115254761D01*
X136940476Y-115207142D01*
%TO.C,U2*%
X106238095Y-114202380D02*
X106238095Y-115011904D01*
X106285714Y-115107142D01*
X106333333Y-115154761D01*
X106428571Y-115202380D01*
X106619047Y-115202380D01*
X106714285Y-115154761D01*
X106761904Y-115107142D01*
X106809523Y-115011904D01*
X106809523Y-114202380D01*
X107238095Y-114297619D02*
X107285714Y-114250000D01*
X107380952Y-114202380D01*
X107619047Y-114202380D01*
X107714285Y-114250000D01*
X107761904Y-114297619D01*
X107809523Y-114392857D01*
X107809523Y-114488095D01*
X107761904Y-114630952D01*
X107190476Y-115202380D01*
X107809523Y-115202380D01*
%TO.C,U1*%
X120988095Y-114302380D02*
X120988095Y-115111904D01*
X121035714Y-115207142D01*
X121083333Y-115254761D01*
X121178571Y-115302380D01*
X121369047Y-115302380D01*
X121464285Y-115254761D01*
X121511904Y-115207142D01*
X121559523Y-115111904D01*
X121559523Y-114302380D01*
X122559523Y-115302380D02*
X121988095Y-115302380D01*
X122273809Y-115302380D02*
X122273809Y-114302380D01*
X122178571Y-114445238D01*
X122083333Y-114540476D01*
X121988095Y-114588095D01*
%TO.C,R14*%
X148702380Y-111892857D02*
X148226190Y-112226190D01*
X148702380Y-112464285D02*
X147702380Y-112464285D01*
X147702380Y-112083333D01*
X147750000Y-111988095D01*
X147797619Y-111940476D01*
X147892857Y-111892857D01*
X148035714Y-111892857D01*
X148130952Y-111940476D01*
X148178571Y-111988095D01*
X148226190Y-112083333D01*
X148226190Y-112464285D01*
X148702380Y-110940476D02*
X148702380Y-111511904D01*
X148702380Y-111226190D02*
X147702380Y-111226190D01*
X147845238Y-111321428D01*
X147940476Y-111416666D01*
X147988095Y-111511904D01*
X148035714Y-110083333D02*
X148702380Y-110083333D01*
X147654761Y-110321428D02*
X148369047Y-110559523D01*
X148369047Y-109940476D01*
%TO.C,R13*%
X134452380Y-119892857D02*
X133976190Y-120226190D01*
X134452380Y-120464285D02*
X133452380Y-120464285D01*
X133452380Y-120083333D01*
X133500000Y-119988095D01*
X133547619Y-119940476D01*
X133642857Y-119892857D01*
X133785714Y-119892857D01*
X133880952Y-119940476D01*
X133928571Y-119988095D01*
X133976190Y-120083333D01*
X133976190Y-120464285D01*
X134452380Y-118940476D02*
X134452380Y-119511904D01*
X134452380Y-119226190D02*
X133452380Y-119226190D01*
X133595238Y-119321428D01*
X133690476Y-119416666D01*
X133738095Y-119511904D01*
X133452380Y-118607142D02*
X133452380Y-117988095D01*
X133833333Y-118321428D01*
X133833333Y-118178571D01*
X133880952Y-118083333D01*
X133928571Y-118035714D01*
X134023809Y-117988095D01*
X134261904Y-117988095D01*
X134357142Y-118035714D01*
X134404761Y-118083333D01*
X134452380Y-118178571D01*
X134452380Y-118464285D01*
X134404761Y-118559523D01*
X134357142Y-118607142D01*
%TO.C,R12*%
X116202380Y-119892857D02*
X115726190Y-120226190D01*
X116202380Y-120464285D02*
X115202380Y-120464285D01*
X115202380Y-120083333D01*
X115250000Y-119988095D01*
X115297619Y-119940476D01*
X115392857Y-119892857D01*
X115535714Y-119892857D01*
X115630952Y-119940476D01*
X115678571Y-119988095D01*
X115726190Y-120083333D01*
X115726190Y-120464285D01*
X116202380Y-118940476D02*
X116202380Y-119511904D01*
X116202380Y-119226190D02*
X115202380Y-119226190D01*
X115345238Y-119321428D01*
X115440476Y-119416666D01*
X115488095Y-119511904D01*
X115297619Y-118559523D02*
X115250000Y-118511904D01*
X115202380Y-118416666D01*
X115202380Y-118178571D01*
X115250000Y-118083333D01*
X115297619Y-118035714D01*
X115392857Y-117988095D01*
X115488095Y-117988095D01*
X115630952Y-118035714D01*
X116202380Y-118607142D01*
X116202380Y-117988095D01*
%TO.C,R11*%
X101952380Y-111892857D02*
X101476190Y-112226190D01*
X101952380Y-112464285D02*
X100952380Y-112464285D01*
X100952380Y-112083333D01*
X101000000Y-111988095D01*
X101047619Y-111940476D01*
X101142857Y-111892857D01*
X101285714Y-111892857D01*
X101380952Y-111940476D01*
X101428571Y-111988095D01*
X101476190Y-112083333D01*
X101476190Y-112464285D01*
X101952380Y-110940476D02*
X101952380Y-111511904D01*
X101952380Y-111226190D02*
X100952380Y-111226190D01*
X101095238Y-111321428D01*
X101190476Y-111416666D01*
X101238095Y-111511904D01*
X101952380Y-109988095D02*
X101952380Y-110559523D01*
X101952380Y-110273809D02*
X100952380Y-110273809D01*
X101095238Y-110369047D01*
X101190476Y-110464285D01*
X101238095Y-110559523D01*
%TO.C,R10*%
X145952380Y-111892857D02*
X145476190Y-112226190D01*
X145952380Y-112464285D02*
X144952380Y-112464285D01*
X144952380Y-112083333D01*
X145000000Y-111988095D01*
X145047619Y-111940476D01*
X145142857Y-111892857D01*
X145285714Y-111892857D01*
X145380952Y-111940476D01*
X145428571Y-111988095D01*
X145476190Y-112083333D01*
X145476190Y-112464285D01*
X145952380Y-110940476D02*
X145952380Y-111511904D01*
X145952380Y-111226190D02*
X144952380Y-111226190D01*
X145095238Y-111321428D01*
X145190476Y-111416666D01*
X145238095Y-111511904D01*
X144952380Y-110321428D02*
X144952380Y-110226190D01*
X145000000Y-110130952D01*
X145047619Y-110083333D01*
X145142857Y-110035714D01*
X145333333Y-109988095D01*
X145571428Y-109988095D01*
X145761904Y-110035714D01*
X145857142Y-110083333D01*
X145904761Y-110130952D01*
X145952380Y-110226190D01*
X145952380Y-110321428D01*
X145904761Y-110416666D01*
X145857142Y-110464285D01*
X145761904Y-110511904D01*
X145571428Y-110559523D01*
X145333333Y-110559523D01*
X145142857Y-110511904D01*
X145047619Y-110464285D01*
X145000000Y-110416666D01*
X144952380Y-110321428D01*
%TO.C,R9*%
X104702380Y-111916666D02*
X104226190Y-112250000D01*
X104702380Y-112488095D02*
X103702380Y-112488095D01*
X103702380Y-112107142D01*
X103750000Y-112011904D01*
X103797619Y-111964285D01*
X103892857Y-111916666D01*
X104035714Y-111916666D01*
X104130952Y-111964285D01*
X104178571Y-112011904D01*
X104226190Y-112107142D01*
X104226190Y-112488095D01*
X104702380Y-111440476D02*
X104702380Y-111250000D01*
X104654761Y-111154761D01*
X104607142Y-111107142D01*
X104464285Y-111011904D01*
X104273809Y-110964285D01*
X103892857Y-110964285D01*
X103797619Y-111011904D01*
X103750000Y-111059523D01*
X103702380Y-111154761D01*
X103702380Y-111345238D01*
X103750000Y-111440476D01*
X103797619Y-111488095D01*
X103892857Y-111535714D01*
X104130952Y-111535714D01*
X104226190Y-111488095D01*
X104273809Y-111440476D01*
X104321428Y-111345238D01*
X104321428Y-111154761D01*
X104273809Y-111059523D01*
X104226190Y-111011904D01*
X104130952Y-110964285D01*
%TO.C,R8*%
X145952380Y-125166666D02*
X145476190Y-125500000D01*
X145952380Y-125738095D02*
X144952380Y-125738095D01*
X144952380Y-125357142D01*
X145000000Y-125261904D01*
X145047619Y-125214285D01*
X145142857Y-125166666D01*
X145285714Y-125166666D01*
X145380952Y-125214285D01*
X145428571Y-125261904D01*
X145476190Y-125357142D01*
X145476190Y-125738095D01*
X145380952Y-124595238D02*
X145333333Y-124690476D01*
X145285714Y-124738095D01*
X145190476Y-124785714D01*
X145142857Y-124785714D01*
X145047619Y-124738095D01*
X145000000Y-124690476D01*
X144952380Y-124595238D01*
X144952380Y-124404761D01*
X145000000Y-124309523D01*
X145047619Y-124261904D01*
X145142857Y-124214285D01*
X145190476Y-124214285D01*
X145285714Y-124261904D01*
X145333333Y-124309523D01*
X145380952Y-124404761D01*
X145380952Y-124595238D01*
X145428571Y-124690476D01*
X145476190Y-124738095D01*
X145571428Y-124785714D01*
X145761904Y-124785714D01*
X145857142Y-124738095D01*
X145904761Y-124690476D01*
X145952380Y-124595238D01*
X145952380Y-124404761D01*
X145904761Y-124309523D01*
X145857142Y-124261904D01*
X145761904Y-124214285D01*
X145571428Y-124214285D01*
X145476190Y-124261904D01*
X145428571Y-124309523D01*
X145380952Y-124404761D01*
%TO.C,R7*%
X104702380Y-125166666D02*
X104226190Y-125500000D01*
X104702380Y-125738095D02*
X103702380Y-125738095D01*
X103702380Y-125357142D01*
X103750000Y-125261904D01*
X103797619Y-125214285D01*
X103892857Y-125166666D01*
X104035714Y-125166666D01*
X104130952Y-125214285D01*
X104178571Y-125261904D01*
X104226190Y-125357142D01*
X104226190Y-125738095D01*
X103702380Y-124833333D02*
X103702380Y-124166666D01*
X104702380Y-124595238D01*
%TO.C,R6*%
X131202380Y-120166666D02*
X130726190Y-120500000D01*
X131202380Y-120738095D02*
X130202380Y-120738095D01*
X130202380Y-120357142D01*
X130250000Y-120261904D01*
X130297619Y-120214285D01*
X130392857Y-120166666D01*
X130535714Y-120166666D01*
X130630952Y-120214285D01*
X130678571Y-120261904D01*
X130726190Y-120357142D01*
X130726190Y-120738095D01*
X130202380Y-119309523D02*
X130202380Y-119500000D01*
X130250000Y-119595238D01*
X130297619Y-119642857D01*
X130440476Y-119738095D01*
X130630952Y-119785714D01*
X131011904Y-119785714D01*
X131107142Y-119738095D01*
X131154761Y-119690476D01*
X131202380Y-119595238D01*
X131202380Y-119404761D01*
X131154761Y-119309523D01*
X131107142Y-119261904D01*
X131011904Y-119214285D01*
X130773809Y-119214285D01*
X130678571Y-119261904D01*
X130630952Y-119309523D01*
X130583333Y-119404761D01*
X130583333Y-119595238D01*
X130630952Y-119690476D01*
X130678571Y-119738095D01*
X130773809Y-119785714D01*
%TO.C,R5*%
X119452380Y-115666666D02*
X118976190Y-116000000D01*
X119452380Y-116238095D02*
X118452380Y-116238095D01*
X118452380Y-115857142D01*
X118500000Y-115761904D01*
X118547619Y-115714285D01*
X118642857Y-115666666D01*
X118785714Y-115666666D01*
X118880952Y-115714285D01*
X118928571Y-115761904D01*
X118976190Y-115857142D01*
X118976190Y-116238095D01*
X118452380Y-114761904D02*
X118452380Y-115238095D01*
X118928571Y-115285714D01*
X118880952Y-115238095D01*
X118833333Y-115142857D01*
X118833333Y-114904761D01*
X118880952Y-114809523D01*
X118928571Y-114761904D01*
X119023809Y-114714285D01*
X119261904Y-114714285D01*
X119357142Y-114761904D01*
X119404761Y-114809523D01*
X119452380Y-114904761D01*
X119452380Y-115142857D01*
X119404761Y-115238095D01*
X119357142Y-115285714D01*
%TO.C,R4*%
X133333333Y-125952380D02*
X133000000Y-125476190D01*
X132761904Y-125952380D02*
X132761904Y-124952380D01*
X133142857Y-124952380D01*
X133238095Y-125000000D01*
X133285714Y-125047619D01*
X133333333Y-125142857D01*
X133333333Y-125285714D01*
X133285714Y-125380952D01*
X133238095Y-125428571D01*
X133142857Y-125476190D01*
X132761904Y-125476190D01*
X134190476Y-125285714D02*
X134190476Y-125952380D01*
X133952380Y-124904761D02*
X133714285Y-125619047D01*
X134333333Y-125619047D01*
%TO.C,R3*%
X116083333Y-125952380D02*
X115750000Y-125476190D01*
X115511904Y-125952380D02*
X115511904Y-124952380D01*
X115892857Y-124952380D01*
X115988095Y-125000000D01*
X116035714Y-125047619D01*
X116083333Y-125142857D01*
X116083333Y-125285714D01*
X116035714Y-125380952D01*
X115988095Y-125428571D01*
X115892857Y-125476190D01*
X115511904Y-125476190D01*
X116416666Y-124952380D02*
X117035714Y-124952380D01*
X116702380Y-125333333D01*
X116845238Y-125333333D01*
X116940476Y-125380952D01*
X116988095Y-125428571D01*
X117035714Y-125523809D01*
X117035714Y-125761904D01*
X116988095Y-125857142D01*
X116940476Y-125904761D01*
X116845238Y-125952380D01*
X116559523Y-125952380D01*
X116464285Y-125904761D01*
X116416666Y-125857142D01*
%TO.C,R2*%
X133333333Y-131452380D02*
X133000000Y-130976190D01*
X132761904Y-131452380D02*
X132761904Y-130452380D01*
X133142857Y-130452380D01*
X133238095Y-130500000D01*
X133285714Y-130547619D01*
X133333333Y-130642857D01*
X133333333Y-130785714D01*
X133285714Y-130880952D01*
X133238095Y-130928571D01*
X133142857Y-130976190D01*
X132761904Y-130976190D01*
X133714285Y-130547619D02*
X133761904Y-130500000D01*
X133857142Y-130452380D01*
X134095238Y-130452380D01*
X134190476Y-130500000D01*
X134238095Y-130547619D01*
X134285714Y-130642857D01*
X134285714Y-130738095D01*
X134238095Y-130880952D01*
X133666666Y-131452380D01*
X134285714Y-131452380D01*
%TO.C,R1*%
X116333333Y-131452380D02*
X116000000Y-130976190D01*
X115761904Y-131452380D02*
X115761904Y-130452380D01*
X116142857Y-130452380D01*
X116238095Y-130500000D01*
X116285714Y-130547619D01*
X116333333Y-130642857D01*
X116333333Y-130785714D01*
X116285714Y-130880952D01*
X116238095Y-130928571D01*
X116142857Y-130976190D01*
X115761904Y-130976190D01*
X117285714Y-131452380D02*
X116714285Y-131452380D01*
X117000000Y-131452380D02*
X117000000Y-130452380D01*
X116904761Y-130595238D01*
X116809523Y-130690476D01*
X116714285Y-130738095D01*
%TO.C,C8*%
X134833333Y-122857142D02*
X134785714Y-122904761D01*
X134642857Y-122952380D01*
X134547619Y-122952380D01*
X134404761Y-122904761D01*
X134309523Y-122809523D01*
X134261904Y-122714285D01*
X134214285Y-122523809D01*
X134214285Y-122380952D01*
X134261904Y-122190476D01*
X134309523Y-122095238D01*
X134404761Y-122000000D01*
X134547619Y-121952380D01*
X134642857Y-121952380D01*
X134785714Y-122000000D01*
X134833333Y-122047619D01*
X135404761Y-122380952D02*
X135309523Y-122333333D01*
X135261904Y-122285714D01*
X135214285Y-122190476D01*
X135214285Y-122142857D01*
X135261904Y-122047619D01*
X135309523Y-122000000D01*
X135404761Y-121952380D01*
X135595238Y-121952380D01*
X135690476Y-122000000D01*
X135738095Y-122047619D01*
X135785714Y-122142857D01*
X135785714Y-122190476D01*
X135738095Y-122285714D01*
X135690476Y-122333333D01*
X135595238Y-122380952D01*
X135404761Y-122380952D01*
X135309523Y-122428571D01*
X135261904Y-122476190D01*
X135214285Y-122571428D01*
X135214285Y-122761904D01*
X135261904Y-122857142D01*
X135309523Y-122904761D01*
X135404761Y-122952380D01*
X135595238Y-122952380D01*
X135690476Y-122904761D01*
X135738095Y-122857142D01*
X135785714Y-122761904D01*
X135785714Y-122571428D01*
X135738095Y-122476190D01*
X135690476Y-122428571D01*
X135595238Y-122380952D01*
%TO.C,C7*%
X108833333Y-124857142D02*
X108785714Y-124904761D01*
X108642857Y-124952380D01*
X108547619Y-124952380D01*
X108404761Y-124904761D01*
X108309523Y-124809523D01*
X108261904Y-124714285D01*
X108214285Y-124523809D01*
X108214285Y-124380952D01*
X108261904Y-124190476D01*
X108309523Y-124095238D01*
X108404761Y-124000000D01*
X108547619Y-123952380D01*
X108642857Y-123952380D01*
X108785714Y-124000000D01*
X108833333Y-124047619D01*
X109166666Y-123952380D02*
X109833333Y-123952380D01*
X109404761Y-124952380D01*
%TO.C,C6*%
X120583333Y-122857142D02*
X120535714Y-122904761D01*
X120392857Y-122952380D01*
X120297619Y-122952380D01*
X120154761Y-122904761D01*
X120059523Y-122809523D01*
X120011904Y-122714285D01*
X119964285Y-122523809D01*
X119964285Y-122380952D01*
X120011904Y-122190476D01*
X120059523Y-122095238D01*
X120154761Y-122000000D01*
X120297619Y-121952380D01*
X120392857Y-121952380D01*
X120535714Y-122000000D01*
X120583333Y-122047619D01*
X121440476Y-121952380D02*
X121250000Y-121952380D01*
X121154761Y-122000000D01*
X121107142Y-122047619D01*
X121011904Y-122190476D01*
X120964285Y-122380952D01*
X120964285Y-122761904D01*
X121011904Y-122857142D01*
X121059523Y-122904761D01*
X121154761Y-122952380D01*
X121345238Y-122952380D01*
X121440476Y-122904761D01*
X121488095Y-122857142D01*
X121535714Y-122761904D01*
X121535714Y-122523809D01*
X121488095Y-122428571D01*
X121440476Y-122380952D01*
X121345238Y-122333333D01*
X121154761Y-122333333D01*
X121059523Y-122380952D01*
X121011904Y-122428571D01*
X120964285Y-122523809D01*
%TO.C,C5*%
X110833333Y-112537142D02*
X110785714Y-112584761D01*
X110642857Y-112632380D01*
X110547619Y-112632380D01*
X110404761Y-112584761D01*
X110309523Y-112489523D01*
X110261904Y-112394285D01*
X110214285Y-112203809D01*
X110214285Y-112060952D01*
X110261904Y-111870476D01*
X110309523Y-111775238D01*
X110404761Y-111680000D01*
X110547619Y-111632380D01*
X110642857Y-111632380D01*
X110785714Y-111680000D01*
X110833333Y-111727619D01*
X111738095Y-111632380D02*
X111261904Y-111632380D01*
X111214285Y-112108571D01*
X111261904Y-112060952D01*
X111357142Y-112013333D01*
X111595238Y-112013333D01*
X111690476Y-112060952D01*
X111738095Y-112108571D01*
X111785714Y-112203809D01*
X111785714Y-112441904D01*
X111738095Y-112537142D01*
X111690476Y-112584761D01*
X111595238Y-112632380D01*
X111357142Y-112632380D01*
X111261904Y-112584761D01*
X111214285Y-112537142D01*
%TO.C,C4*%
X140583333Y-112537142D02*
X140535714Y-112584761D01*
X140392857Y-112632380D01*
X140297619Y-112632380D01*
X140154761Y-112584761D01*
X140059523Y-112489523D01*
X140011904Y-112394285D01*
X139964285Y-112203809D01*
X139964285Y-112060952D01*
X140011904Y-111870476D01*
X140059523Y-111775238D01*
X140154761Y-111680000D01*
X140297619Y-111632380D01*
X140392857Y-111632380D01*
X140535714Y-111680000D01*
X140583333Y-111727619D01*
X141440476Y-111965714D02*
X141440476Y-112632380D01*
X141202380Y-111584761D02*
X140964285Y-112299047D01*
X141583333Y-112299047D01*
%TO.C,C3*%
X125833333Y-112607142D02*
X125785714Y-112654761D01*
X125642857Y-112702380D01*
X125547619Y-112702380D01*
X125404761Y-112654761D01*
X125309523Y-112559523D01*
X125261904Y-112464285D01*
X125214285Y-112273809D01*
X125214285Y-112130952D01*
X125261904Y-111940476D01*
X125309523Y-111845238D01*
X125404761Y-111750000D01*
X125547619Y-111702380D01*
X125642857Y-111702380D01*
X125785714Y-111750000D01*
X125833333Y-111797619D01*
X126166666Y-111702380D02*
X126785714Y-111702380D01*
X126452380Y-112083333D01*
X126595238Y-112083333D01*
X126690476Y-112130952D01*
X126738095Y-112178571D01*
X126785714Y-112273809D01*
X126785714Y-112511904D01*
X126738095Y-112607142D01*
X126690476Y-112654761D01*
X126595238Y-112702380D01*
X126309523Y-112702380D01*
X126214285Y-112654761D01*
X126166666Y-112607142D01*
%TO.C,C2*%
X133333333Y-128607142D02*
X133285714Y-128654761D01*
X133142857Y-128702380D01*
X133047619Y-128702380D01*
X132904761Y-128654761D01*
X132809523Y-128559523D01*
X132761904Y-128464285D01*
X132714285Y-128273809D01*
X132714285Y-128130952D01*
X132761904Y-127940476D01*
X132809523Y-127845238D01*
X132904761Y-127750000D01*
X133047619Y-127702380D01*
X133142857Y-127702380D01*
X133285714Y-127750000D01*
X133333333Y-127797619D01*
X133714285Y-127797619D02*
X133761904Y-127750000D01*
X133857142Y-127702380D01*
X134095238Y-127702380D01*
X134190476Y-127750000D01*
X134238095Y-127797619D01*
X134285714Y-127892857D01*
X134285714Y-127988095D01*
X134238095Y-128130952D01*
X133666666Y-128702380D01*
X134285714Y-128702380D01*
%TO.C,C1*%
X116333333Y-128607142D02*
X116285714Y-128654761D01*
X116142857Y-128702380D01*
X116047619Y-128702380D01*
X115904761Y-128654761D01*
X115809523Y-128559523D01*
X115761904Y-128464285D01*
X115714285Y-128273809D01*
X115714285Y-128130952D01*
X115761904Y-127940476D01*
X115809523Y-127845238D01*
X115904761Y-127750000D01*
X116047619Y-127702380D01*
X116142857Y-127702380D01*
X116285714Y-127750000D01*
X116333333Y-127797619D01*
X117285714Y-128702380D02*
X116714285Y-128702380D01*
X117000000Y-128702380D02*
X117000000Y-127702380D01*
X116904761Y-127845238D01*
X116809523Y-127940476D01*
X116714285Y-127988095D01*
%TD*%
M02*
